<svg width="63" height="63" viewBox="0 0 63 63" fill="none" xmlns="http://www.w3.org/2000/svg">
<path d="M31.8015 62.5C25.6702 62.5 19.6767 60.6819 14.5788 57.2756C9.48087 53.8693 5.50752 49.0277 3.1612 43.3632C0.814884 37.6987 0.200981 31.4656 1.39712 25.4522C2.59326 19.4388 5.54573 13.9151 9.88116 9.5797C14.2166 5.24428 19.7403 2.29181 25.7537 1.09567C31.7671 -0.100472 38.0001 0.513432 43.6647 2.85975C49.3292 5.20606 54.1707 9.17941 57.577 14.2773C60.9834 19.3753 62.8015 25.3688 62.8015 31.5C62.8015 39.7217 59.5354 47.6067 53.7218 53.4203C47.9082 59.234 40.0232 62.5 31.8015 62.5ZM31.8015 4.37501C26.4366 4.37501 21.1923 5.96587 16.7316 8.9464C12.2709 11.9269 8.79426 16.1633 6.74123 21.1197C4.68821 26.0762 4.15104 31.5301 5.19767 36.7918C6.24429 42.0536 8.8277 46.8868 12.6212 50.6803C16.4147 54.4738 21.2479 57.0572 26.5096 58.1038C31.7714 59.1504 37.2253 58.6133 42.1818 56.5602C47.1382 54.5072 51.3745 51.0305 54.3551 46.5699C57.3356 42.1092 58.9265 36.8648 58.9265 31.5C58.9265 24.306 56.0687 17.4067 50.9817 12.3197C45.8948 7.23282 38.9955 4.37501 31.8015 4.37501Z" fill="#F47D31"/>
<path d="M29.864 25.6875H25.989C25.989 24.6598 25.5807 23.6742 24.854 22.9475C24.1273 22.2208 23.1417 21.8125 22.114 21.8125C21.0862 21.8125 20.1006 22.2208 19.3739 22.9475C18.6472 23.6742 18.239 24.6598 18.239 25.6875H14.364C14.364 23.6321 15.1805 21.6608 16.6339 20.2074C18.0873 18.754 20.0585 17.9375 22.114 17.9375C24.1694 17.9375 26.1406 18.754 27.594 20.2074C29.0474 21.6608 29.864 23.6321 29.864 25.6875Z" fill="#F47D31"/>
<path d="M49.239 25.6875H45.364C45.364 24.6598 44.9557 23.6742 44.229 22.9475C43.5023 22.2208 42.5167 21.8125 41.489 21.8125C40.4612 21.8125 39.4756 22.2208 38.7489 22.9475C38.0222 23.6742 37.614 24.6598 37.614 25.6875H33.739C33.739 23.6321 34.5555 21.6608 36.0089 20.2074C37.4623 18.754 39.4335 17.9375 41.489 17.9375C43.5444 17.9375 45.5156 18.754 46.969 20.2074C48.4224 21.6608 49.239 23.6321 49.239 25.6875Z" fill="#F47D31"/>
<path d="M31.8015 48.9375C27.6906 48.9375 23.7481 47.3045 20.8413 44.3977C17.9345 41.4908 16.3015 37.5484 16.3015 33.4375H20.1765C20.1765 36.5206 21.4012 39.4775 23.5813 41.6576C25.7614 43.8377 28.7183 45.0625 31.8015 45.0625C34.8846 45.0625 37.8415 43.8377 40.0216 41.6576C42.2017 39.4775 43.4265 36.5206 43.4265 33.4375H47.3015C47.3015 37.5484 45.6684 41.4908 42.7616 44.3977C39.8548 47.3045 35.9123 48.9375 31.8015 48.9375Z" fill="#F47D31"/>
</svg>
