<svg width="72" height="69" viewBox="0 0 72 69" fill="none" xmlns="http://www.w3.org/2000/svg">
<g filter="url(#filter0_d_548_292)">
<mask id="path-1-inside-1_548_292" fill="white">
<path d="M39.6561 18.999C39.6561 18.999 43.1561 16.4986 45.6561 14.9994C48.1561 13.5001 56.6561 28 56.6561 28L67.6561 37.0001L66.1561 40.5001L58.6561 37.0001L63.1561 43.999L45.1561 51.999L49.6561 53.999L46.6561 60.999L35.6561 55.999L25.1561 60.499L22.1561 53.999L25.6561 51.999L9.15613 43.999L13.1561 38.0001L5.65613 40.5001L4.15613 36L16.6561 28.5001C16.6561 28.5001 24.6561 13.4987 27.1561 14.9994C29.6561 16.5001 33.1561 18.999 33.1561 18.999H39.6561Z"/>
</mask>
<path d="M58.6561 37.0001L59.2651 38.3709L62.2753 37.0338L59.2905 35.6408L58.6561 37.0001ZM51.1561 33.5001L49.8326 34.2059L50.0681 34.6477L50.5218 34.8594L51.1561 33.5001ZM47.1561 25.999L48.4797 25.2932C48.203 24.7743 47.6486 24.465 47.0618 24.502C46.4749 24.539 45.9637 24.9155 45.7544 25.465L47.1561 25.999ZM43.1561 36.499L41.7544 35.965L41.1396 37.5789L42.8237 37.9617L43.1561 36.499ZM54.1561 38.999L53.8237 40.4617L54.3096 40.5721L54.7651 40.3698L54.1561 38.999ZM13.1561 38.0001L12.4207 36.6927L9.00364 38.6148L12.8311 39.4644L13.1561 38.0001ZM17.6561 38.999L17.3311 40.4633L17.66 40.5364L17.9886 40.4617L17.6561 38.999ZM28.6561 36.499L28.9886 37.9617L30.5152 37.6147L30.1033 36.1043L28.6561 36.499ZM25.6561 25.499L27.1033 25.1043C26.9432 24.5172 26.4442 24.085 25.8402 24.0103C25.2363 23.9356 24.647 24.2333 24.3487 24.7637L25.6561 25.499ZM21.1561 33.5001L21.8915 34.8075L22.2576 34.6015L22.4635 34.2354L21.1561 33.5001ZM59.2905 35.6408L51.7905 32.1408L50.5218 34.8594L58.0218 38.3594L59.2905 35.6408ZM52.4797 32.7943L48.4797 25.2932L45.8326 26.7048L49.8326 34.2059L52.4797 32.7943ZM45.7544 25.465L41.7544 35.965L44.5579 37.033L48.5579 26.533L45.7544 25.465ZM42.8237 37.9617L53.8237 40.4617L54.4886 37.5363L43.4886 35.0363L42.8237 37.9617ZM54.7651 40.3698L59.2651 38.3709L58.0472 35.6292L53.5472 37.6281L54.7651 40.3698ZM12.8311 39.4644L17.3311 40.4633L17.9812 37.5346L13.4812 36.5357L12.8311 39.4644ZM17.9886 40.4617L28.9886 37.9617L28.3237 35.0363L17.3237 37.5363L17.9886 40.4617ZM30.1033 36.1043L27.1033 25.1043L24.209 25.8937L27.209 36.8937L30.1033 36.1043ZM24.3487 24.7637L19.8487 32.7648L22.4635 34.2354L26.9635 26.2343L24.3487 24.7637ZM20.4207 32.1927L12.4207 36.6927L13.8915 39.3075L21.8915 34.8075L20.4207 32.1927ZM39.6561 18.999V21.999H40.6176L41.4 21.4401L39.6561 18.999ZM45.6561 14.9994L47.1991 17.5722L45.6561 14.9994ZM56.6561 28L54.068 29.5172L54.3401 29.9812L54.7564 30.3219L56.6561 28ZM67.6561 37.0001L70.4136 38.1819C70.9401 36.9533 70.5903 35.5246 69.5559 34.6782L67.6561 37.0001ZM66.1561 40.5001L64.8875 43.2186C65.6234 43.5621 66.4672 43.5925 67.226 43.3028C67.9847 43.0132 68.5936 42.4283 68.9136 41.6818L66.1561 40.5001ZM58.6561 37.0001L59.9248 34.2815L50.5196 29.8925L56.1327 38.6225L58.6561 37.0001ZM63.1561 43.999L64.3745 46.7404C65.1747 46.3848 65.7795 45.6974 66.0304 44.8585C66.2812 44.0196 66.1531 43.113 65.6795 42.3765L63.1561 43.999ZM45.1561 51.999L43.9377 49.2575L37.7695 51.999L43.9377 54.7404L45.1561 51.999ZM49.6561 53.999L52.4136 55.1807L53.5797 52.4598L50.8745 51.2575L49.6561 53.999ZM46.6561 60.999L45.4147 63.7301L48.2058 64.9988L49.4136 62.1807L46.6561 60.999ZM35.6561 55.999L36.8975 53.2679L35.6918 52.7198L34.4744 53.2415L35.6561 55.999ZM25.1561 60.499L22.4322 61.7562L23.6553 64.4061L26.3379 63.2564L25.1561 60.499ZM22.1561 53.999L20.6677 51.3943L18.2797 52.7589L19.4323 55.2562L22.1561 53.999ZM25.6561 51.999L27.1445 54.6037L32.0837 51.7813L26.9649 49.2995L25.6561 51.999ZM9.15613 43.999L6.66012 42.3347C6.17918 43.056 6.03376 43.95 6.26134 44.7865C6.48892 45.623 7.06724 46.3202 7.84731 46.6984L9.15613 43.999ZM13.1561 38.0001L15.6521 39.6644L20.5035 32.3887L12.2074 35.154L13.1561 38.0001ZM5.65613 40.5001L2.81007 41.4488C3.06168 42.2036 3.60283 42.8275 4.31448 43.1834C5.02613 43.5392 5.84999 43.5977 6.60481 43.3461L5.65613 40.5001ZM4.15613 36L2.61265 33.4275C1.40693 34.1509 0.865435 35.6147 1.31007 36.9487L4.15613 36ZM16.6561 28.5001L18.1996 31.0725L18.9122 30.645L19.3032 29.9117L16.6561 28.5001ZM27.1561 14.9994L25.6121 17.5715L27.1561 14.9994ZM33.1561 18.999L31.4129 21.4405L32.1951 21.999H33.1561V18.999ZM39.6561 18.999C41.4 21.4401 41.4 21.4401 41.3999 21.4401C41.3999 21.4401 41.3999 21.4402 41.3999 21.4401C41.3999 21.4401 41.4 21.4401 41.4001 21.44C41.4004 21.4398 41.4008 21.4395 41.4015 21.439C41.4029 21.438 41.405 21.4365 41.408 21.4344C41.414 21.4301 41.4232 21.4235 41.4356 21.4147C41.4604 21.3971 41.4976 21.3706 41.5462 21.3361C41.6436 21.2672 41.7864 21.1662 41.9661 21.0401C42.3256 20.7876 42.831 20.4353 43.4127 20.0373C44.5885 19.2328 46.0285 18.2742 47.1991 17.5722L44.1132 12.4266C42.7837 13.2238 41.2238 14.265 40.0246 15.0855C39.4187 15.5 38.8929 15.8665 38.5181 16.1297C38.3305 16.2614 38.1804 16.3675 38.0766 16.4411C38.0246 16.4779 37.9842 16.5066 37.9565 16.5264C37.9426 16.5363 37.9319 16.5439 37.9245 16.5492C37.9208 16.5518 37.9179 16.5539 37.9158 16.5553C37.9148 16.5561 37.914 16.5567 37.9134 16.5571C37.9131 16.5573 37.9129 16.5575 37.9127 16.5576C37.9126 16.5577 37.9125 16.5578 37.9124 16.5578C37.9123 16.5579 37.9122 16.5579 39.6561 18.999ZM47.1991 17.5722C46.1151 18.2222 45.2378 17.6689 45.4285 17.7712C45.5156 17.818 45.808 18.0193 46.3082 18.5194C47.2727 19.4841 48.4522 20.9885 49.6464 22.6727C50.8199 24.3276 51.9271 26.0407 52.7458 27.3491C53.1537 28.001 53.4868 28.5473 53.7169 28.929C53.8319 29.1197 53.9211 29.2691 53.9808 29.3696C54.0106 29.4199 54.0331 29.4579 54.0478 29.4829C54.0552 29.4953 54.0606 29.5045 54.064 29.5102C54.0657 29.5131 54.0668 29.5151 54.0675 29.5163C54.0679 29.5169 54.0681 29.5172 54.0682 29.5174C54.0682 29.5175 54.0682 29.5174 54.0682 29.5174C54.0681 29.5173 54.068 29.5172 56.6561 28C59.2442 26.4828 59.2441 26.4826 59.2439 26.4822C59.2438 26.482 59.2435 26.4817 59.2433 26.4813C59.2429 26.4806 59.2423 26.4796 59.2416 26.4784C59.2403 26.4761 59.2384 26.4729 59.236 26.4688C59.2312 26.4606 59.2243 26.449 59.2155 26.4341C59.1979 26.4042 59.1723 26.361 59.1393 26.3054C59.0733 26.1943 58.9774 26.0336 58.8551 25.8308C58.6106 25.4253 58.2601 24.8505 57.8321 24.1665C56.9789 22.803 55.8049 20.9849 54.5408 19.2022C53.2976 17.4489 51.8833 15.6094 50.551 14.277C49.9026 13.6286 49.1208 12.9431 48.2646 12.4838C47.512 12.0801 45.8222 11.4017 44.1132 12.4266L47.1991 17.5722ZM54.7564 30.3219L65.7564 39.322L69.5559 34.6782L58.5559 25.6781L54.7564 30.3219ZM64.8987 35.8183L63.3987 39.3183L68.9136 41.6818L70.4136 38.1819L64.8987 35.8183ZM67.4248 37.7815L59.9248 34.2815L57.3875 39.7186L64.8875 43.2186L67.4248 37.7815ZM56.1327 38.6225L60.6327 45.6214L65.6795 42.3765L61.1795 35.3776L56.1327 38.6225ZM61.9377 41.2576L43.9377 49.2575L46.3745 54.7404L64.3745 46.7404L61.9377 41.2576ZM43.9377 54.7404L48.4377 56.7404L50.8745 51.2575L46.3745 49.2575L43.9377 54.7404ZM46.8987 52.8172L43.8987 59.8172L49.4136 62.1807L52.4136 55.1807L46.8987 52.8172ZM47.8975 58.2679L36.8975 53.2679L34.4147 58.7301L45.4147 63.7301L47.8975 58.2679ZM34.4744 53.2415L23.9744 57.7415L26.3379 63.2564L36.8379 58.7564L34.4744 53.2415ZM27.88 59.2418L24.88 52.7418L19.4323 55.2562L22.4322 61.7562L27.88 59.2418ZM23.6445 56.6037L27.1445 54.6037L24.1677 49.3943L20.6677 51.3943L23.6445 56.6037ZM26.9649 49.2995L10.4649 41.2995L7.84731 46.6984L24.3473 54.6984L26.9649 49.2995ZM11.6521 45.6633L15.6521 39.6644L10.6601 36.3358L6.66012 42.3347L11.6521 45.6633ZM8.50218 39.5514L7.00218 35.0513L1.31007 36.9487L2.81007 41.4488L8.50218 39.5514ZM5.69961 38.5725L18.1996 31.0725L15.1126 25.9276L2.61265 33.4275L5.69961 38.5725ZM16.6561 28.5001C19.3032 29.9117 19.3032 29.9119 19.3031 29.912C19.3031 29.9119 19.3031 29.912 19.3031 29.9119C19.3032 29.9118 19.3034 29.9114 19.3037 29.9108C19.3044 29.9096 19.3055 29.9074 19.3071 29.9044C19.3103 29.8985 19.3154 29.889 19.3224 29.876C19.3362 29.8502 19.3574 29.8108 19.3856 29.7587C19.4419 29.6545 19.5259 29.4999 19.6344 29.3024C19.8514 28.9071 20.1656 28.3414 20.5509 27.6663C21.3241 26.3112 22.3711 24.5364 23.485 22.8203C24.619 21.0733 25.7424 19.512 26.6669 18.5088C27.1479 17.9868 27.4251 17.7828 27.4963 17.7414C27.6649 17.6432 26.745 18.2516 25.6121 17.5715L28.7001 12.4272C26.9422 11.372 25.2254 12.1208 24.4781 12.5558C23.6332 13.0475 22.8753 13.7693 22.2547 14.4427C20.9761 15.8302 19.6308 17.7379 18.4522 19.5536C17.2536 21.4003 16.1445 23.282 15.3395 24.6928C14.9357 25.4006 14.6054 25.9951 14.3751 26.4144C14.26 26.6242 14.1697 26.7903 14.1076 26.9052C14.0765 26.9626 14.0525 27.0072 14.036 27.0381C14.0277 27.0535 14.0213 27.0655 14.0167 27.0739C14.0145 27.0781 14.0127 27.0815 14.0114 27.0839C14.0108 27.0851 14.0103 27.0861 14.0099 27.0868C14.0097 27.0872 14.0094 27.0876 14.0093 27.0878C14.0092 27.0881 14.009 27.0884 16.6561 28.5001ZM25.6121 17.5715C26.7834 18.2746 28.224 19.2337 29.3998 20.038C29.9816 20.436 30.4871 20.7882 30.8467 21.0406C31.0264 21.1667 31.1692 21.2676 31.2666 21.3366C31.3153 21.3711 31.3525 21.3976 31.3773 21.4152C31.3897 21.424 31.3989 21.4306 31.4049 21.4348C31.4079 21.437 31.4101 21.4385 31.4114 21.4395C31.4121 21.4399 31.4125 21.4403 31.4128 21.4405C31.4129 21.4405 31.413 21.4406 31.413 21.4406C31.413 21.4406 31.413 21.4406 31.413 21.4406C31.413 21.4406 31.4129 21.4405 33.1561 18.999C34.8993 16.5574 34.8993 16.5574 34.8992 16.5573C34.8991 16.5573 34.899 16.5572 34.8989 16.5571C34.8987 16.557 34.8985 16.5568 34.8982 16.5566C34.8976 16.5562 34.8968 16.5556 34.8958 16.5549C34.8937 16.5534 34.8908 16.5514 34.8871 16.5487C34.8797 16.5434 34.869 16.5358 34.8551 16.526C34.8274 16.5062 34.787 16.4775 34.7351 16.4408C34.6313 16.3672 34.4812 16.2612 34.2937 16.1296C33.9189 15.8665 33.3932 15.5002 32.7874 15.0858C31.5883 14.2656 30.0289 13.2248 28.7001 12.4272L25.6121 17.5715ZM33.1561 21.999H39.6561V15.999H33.1561V21.999ZM12.2074 35.154L4.70744 37.654L6.60481 43.3461L14.1048 40.8461L12.2074 35.154Z" fill="#F47D31" mask="url(#path-1-inside-1_548_292)"/>
<circle cx="36.1561" cy="8.5" r="6.5" stroke="#F47D31" stroke-width="3"/>
</g>
<defs>
<filter id="filter0_d_548_292" x="0.156128" y="0.5" width="71.5" height="68.499" filterUnits="userSpaceOnUse" color-interpolation-filters="sRGB">
<feFlood flood-opacity="0" result="BackgroundImageFix"/>
<feColorMatrix in="SourceAlpha" type="matrix" values="0 0 0 0 0 0 0 0 0 0 0 0 0 0 0 0 0 0 127 0" result="hardAlpha"/>
<feOffset dy="4"/>
<feGaussianBlur stdDeviation="2"/>
<feComposite in2="hardAlpha" operator="out"/>
<feColorMatrix type="matrix" values="0 0 0 0 0 0 0 0 0 0 0 0 0 0 0 0 0 0 0.25 0"/>
<feBlend mode="normal" in2="BackgroundImageFix" result="effect1_dropShadow_548_292"/>
<feBlend mode="normal" in="SourceGraphic" in2="effect1_dropShadow_548_292" result="shape"/>
</filter>
</defs>
</svg>
