<svg width="106" height="51" viewBox="0 0 106 51" fill="none" xmlns="http://www.w3.org/2000/svg">
<path d="M28.5954 47.7793C28.7987 42.3559 31.5273 32.4228 41.2927 27.2555C42.3224 28.1277 43.7716 29.1333 45.4896 29.9561C47.7272 31.0278 50.5252 31.8388 53.5095 31.5404C58.3615 31.0552 62.4886 28.8148 64.6268 27.2711C66.7488 28.6412 69.6733 31.0686 72.1283 34.4152C74.7246 37.9543 76.757 42.4645 76.8299 47.813C68.7699 49.0493 49.386 50.5122 28.5954 47.7793Z" stroke="#F47D31" stroke-width="3"/>
<circle cx="52.7029" cy="13.6324" r="11.6324" stroke="#F47D31" stroke-width="3"/>
<path d="M73.7613 27.1821C74.1498 26.8614 74.7755 26.4334 75.7673 25.923C76.5939 26.5881 77.7126 27.3302 79.0224 27.9432C80.8312 28.7897 83.1058 29.4368 85.5416 29.1988C89.3352 28.8281 92.5773 27.1608 94.3522 25.9438C95.9946 27.0059 98.2032 28.827 100.066 31.3077C102.048 33.9485 103.598 37.2788 103.724 41.2088C98.4727 42.0094 92.3948 42.2773 81.6926 42.2979C81.2913 38.8277 79.5144 32.4328 73.7613 27.1821Z" stroke="#F47D31" stroke-width="3"/>
<circle cx="84.8797" cy="14.289" r="8.34926" stroke="#F47D31" stroke-width="3"/>
<path d="M31.6467 27.1821C31.2582 26.8614 30.6324 26.4334 29.6407 25.923C28.8141 26.5881 27.6954 27.3302 26.3856 27.9432C24.5768 28.7897 22.3021 29.4368 19.8664 29.1988C16.0728 28.8281 12.8307 27.1608 11.0558 25.9438C9.41342 27.0059 7.20477 28.827 5.3424 31.3077C3.35976 33.9485 1.80998 37.2788 1.68393 41.2088C6.93525 42.0094 13.0132 42.2773 23.7154 42.2979C24.1167 38.8277 25.8936 32.4328 31.6467 27.1821Z" stroke="#F47D31" stroke-width="3"/>
<circle cx="9.84926" cy="9.84926" r="8.34926" transform="matrix(-1 0 0 1 30.3781 4.4397)" stroke="#F47D31" stroke-width="3"/>
</svg>
