<svg width="11" height="11" viewBox="0 0 11 11" fill="none" xmlns="http://www.w3.org/2000/svg">
<path d="M5.49783 0.921631C2.96638 0.921631 0.916016 2.97199 0.916016 5.50345C0.916016 8.0349 2.96638 10.0853 5.49783 10.0853C8.02929 10.0853 10.0796 8.0349 10.0796 5.50345C10.0796 2.97199 8.02929 0.921631 5.49783 0.921631ZM5.49783 9.1689C3.47725 9.1689 1.83238 7.52403 1.83238 5.50345C1.83238 3.48287 3.47725 1.83799 5.49783 1.83799C7.51841 1.83799 9.16329 3.48287 9.16329 5.50345C9.16329 7.52403 7.51841 9.1689 5.49783 9.1689ZM4.61812 4.98341C4.64332 4.8345 4.68914 4.70163 4.75558 4.58479C4.82201 4.46796 4.91365 4.37403 5.02591 4.30301C5.13358 4.23658 5.26874 4.19992 5.43598 4.19763C5.54594 4.19992 5.64674 4.21825 5.7338 4.25719C5.82772 4.29843 5.90561 4.35341 5.97205 4.42214C6.03849 4.49087 6.08889 4.57334 6.12554 4.66498C6.1622 4.75661 6.18281 4.85512 6.1874 4.95821H7.00754C7.00067 4.74287 6.95714 4.54585 6.88154 4.36716C6.80594 4.18847 6.69598 4.03498 6.55852 3.90439C6.42107 3.77381 6.25612 3.6753 6.06369 3.60428C5.87125 3.53327 5.6582 3.49661 5.42452 3.49661C5.12671 3.49661 4.86783 3.54701 4.64791 3.6501C4.42798 3.75319 4.24471 3.89294 4.09809 4.07163C3.95147 4.25032 3.84151 4.4565 3.77049 4.69247C3.69947 4.92843 3.66511 5.17814 3.66511 5.44159V5.56759C3.66511 5.83334 3.70176 6.08305 3.77278 6.31901C3.8438 6.55497 3.95376 6.76116 4.10038 6.93756C4.247 7.11396 4.43027 7.2537 4.65249 7.35679C4.87471 7.45988 5.13358 7.51028 5.4314 7.51028C5.64674 7.51028 5.84834 7.47592 6.0362 7.4049C6.22405 7.33388 6.389 7.23767 6.53103 7.11396C6.67307 6.99025 6.78761 6.84821 6.87009 6.68327C6.95256 6.51832 7.00067 6.34421 7.00754 6.15636H6.1874C6.18281 6.25257 6.1599 6.33963 6.11867 6.4221C6.07743 6.50457 6.02245 6.5733 5.95372 6.63057C5.885 6.68785 5.80481 6.73367 5.71318 6.76574C5.62612 6.79552 5.53449 6.81156 5.43598 6.81156C5.27103 6.80697 5.13587 6.77261 5.02591 6.70388C4.91136 6.63057 4.81972 6.53665 4.75329 6.41981C4.68685 6.30297 4.64103 6.1701 4.61583 6.0189C4.59063 5.8677 4.58147 5.72108 4.58147 5.56759V5.44159C4.58147 5.28581 4.59292 5.13232 4.61812 4.98341Z" fill="#5C5C5C"/>
</svg>
