<svg width="228" height="119" viewBox="0 0 228 119" fill="none" xmlns="http://www.w3.org/2000/svg">
<path fill-rule="evenodd" clip-rule="evenodd" d="M175.133 105.754C176.263 101.172 176.862 96.3803 176.862 91.449C176.862 58.5548 150.196 31.8889 117.302 31.8889C84.4082 31.8889 57.7422 58.5548 57.7422 91.449C57.7422 96.3803 58.3415 101.172 59.4712 105.754H175.133Z" fill="#F5AB7C"/>
<circle cx="95.6681" cy="69.2767" r="6.59782" fill="#353434"/>
<circle cx="147.881" cy="69.3519" r="6.59782" fill="#353434"/>
<rect x="105.283" y="60.7541" width="19.7935" height="5.49818" fill="#353434"/>
<path d="M92.939 93.3473C94.5481 100.013 98.7391 105.766 104.59 109.341C110.441 112.916 117.472 114.021 124.138 112.412C130.803 110.803 136.556 106.612 140.132 100.761C143.707 94.9101 144.812 87.8785 143.202 81.2132L118.071 87.2802L92.939 93.3473Z" fill="#353434"/>
<ellipse cx="4.94836" cy="101.716" rx="4.94836" ry="10.4465" fill="#1E1E1E"/>
<ellipse cx="13.7452" cy="101.716" rx="4.94836" ry="10.4465" fill="#1E1E1E"/>
<ellipse cx="22.5421" cy="101.716" rx="4.94836" ry="10.4465" fill="#1E1E1E"/>
<ellipse cx="205.083" cy="101.716" rx="4.94836" ry="10.4465" fill="#1E1E1E"/>
<ellipse cx="213.88" cy="101.716" rx="4.94836" ry="10.4465" fill="#1E1E1E"/>
<ellipse cx="222.677" cy="101.716" rx="4.94836" ry="10.4465" fill="#1E1E1E"/>
<path d="M107.014 10.4734C104.423 14.2951 103.133 18.85 103.336 23.4626C103.538 28.0752 105.221 32.4997 108.137 36.08L110.539 34.1239C108.044 31.0602 106.604 27.274 106.431 23.3269C106.258 19.3798 107.361 15.4821 109.578 12.2118L107.014 10.4734Z" fill="#353434"/>
<circle cx="140.283" cy="62.7541" r="16" stroke="#353434" stroke-width="2"/>
<circle cx="89.2832" cy="62.7541" r="16" stroke="#353434" stroke-width="2"/>
</svg>
