<svg width="1039" height="305" viewBox="0 0 1039 305" fill="none" xmlns="http://www.w3.org/2000/svg">
<g clip-path="url(#clip0_1017_745)">
<path d="M33 246L971.359 252.5C980.015 252.56 987 259.594 987 268.25C987 276.948 979.948 284 971.25 284H71C50.0132 284 33 266.987 33 246Z" fill="#FF6700"/>
<path fill-rule="evenodd" clip-rule="evenodd" d="M867.272 252.499C869.071 245.203 870.025 237.575 870.025 229.724C870.025 177.354 827.57 134.899 775.2 134.899C722.83 134.899 680.376 177.354 680.376 229.724C680.376 237.575 681.33 245.203 683.129 252.499H867.272Z" fill="#F5AB7C"/>
<circle cx="740.756" cy="194.424" r="10.5042" fill="#353434"/>
<circle cx="823.883" cy="194.544" r="10.5042" fill="#353434"/>
<rect x="756.064" y="180.855" width="31.5127" height="8.75353" fill="#353434"/>
<path d="M736.411 232.746C738.973 243.358 745.645 252.517 754.96 258.21C764.276 263.902 775.47 265.66 786.082 263.099C796.694 260.537 805.853 253.865 811.545 244.549C817.238 235.234 818.996 224.04 816.435 213.428L776.423 223.087L736.411 232.746Z" fill="#353434"/>
<ellipse cx="596.323" cy="246.07" rx="7.87818" ry="16.6317" fill="#1E1E1E"/>
<ellipse cx="610.328" cy="246.07" rx="7.87818" ry="16.6317" fill="#1E1E1E"/>
<ellipse cx="624.334" cy="246.07" rx="7.87818" ry="16.6317" fill="#1E1E1E"/>
<ellipse cx="914.954" cy="246.07" rx="7.87818" ry="16.6317" fill="#1E1E1E"/>
<ellipse cx="928.959" cy="246.07" rx="7.87818" ry="16.6317" fill="#1E1E1E"/>
<ellipse cx="942.965" cy="246.07" rx="7.87818" ry="16.6317" fill="#1E1E1E"/>
<path d="M758.819 100.804C754.695 106.889 752.641 114.141 752.963 121.484C753.285 128.828 755.966 135.872 760.607 141.572L764.432 138.458C760.46 133.58 758.167 127.552 757.891 121.268C757.616 114.984 759.373 108.779 762.902 103.572L758.819 100.804Z" fill="#353434"/>
<circle cx="811.787" cy="184.039" r="25.4733" stroke="#353434" stroke-width="3.18416"/>
<circle cx="730.591" cy="184.039" r="25.4733" stroke="#353434" stroke-width="3.18416"/>
<rect x="649" y="29.2241" width="254.161" height="51.1096" rx="25.5548" fill="#FF6700"/>
<path d="M666.637 48.8685H668.88L670.3 52.9878L671.737 48.8685H673.964L671.825 54.5303L673.403 58.4918L676.926 48.8335H679.555L674.577 61.2788H672.491L670.3 56.0553L668.127 61.2788H666.041L661.08 48.8335H663.674L667.215 58.4918L668.758 54.5303L666.637 48.8685ZM683.629 61.4541C682.893 61.4541 682.227 61.3314 681.631 61.086C681.035 60.8289 680.527 60.4842 680.106 60.0518C679.685 59.6077 679.358 59.1053 679.124 58.5443C678.902 57.9717 678.791 57.3699 678.791 56.7389C678.791 55.8625 678.984 55.062 679.37 54.3375C679.767 53.613 680.328 53.0345 681.053 52.6021C681.789 52.1581 682.654 51.9361 683.647 51.9361C684.652 51.9361 685.511 52.1581 686.224 52.6021C686.936 53.0345 687.48 53.613 687.854 54.3375C688.239 55.0503 688.432 55.8216 688.432 56.6513C688.432 56.7915 688.426 56.9376 688.415 57.0895C688.403 57.2297 688.391 57.3466 688.38 57.44H681.28C681.327 57.9075 681.462 58.3165 681.684 58.667C681.917 59.0176 682.209 59.2864 682.56 59.4734C682.922 59.6486 683.308 59.7363 683.717 59.7363C684.184 59.7363 684.623 59.6253 685.032 59.4032C685.452 59.1695 685.739 58.8657 685.89 58.4918L687.906 59.0527C687.684 59.5201 687.363 59.9349 686.942 60.2972C686.533 60.6595 686.048 60.9458 685.487 61.1561C684.926 61.3548 684.307 61.4541 683.629 61.4541ZM681.228 55.9501H686.031C685.984 55.4827 685.85 55.0795 685.628 54.7406C685.417 54.3901 685.137 54.1213 684.786 53.9343C684.436 53.7357 684.044 53.6363 683.612 53.6363C683.191 53.6363 682.805 53.7357 682.455 53.9343C682.116 54.1213 681.836 54.3901 681.613 54.7406C681.403 55.0795 681.275 55.4827 681.228 55.9501ZM689.846 48.4829H692.194V58.334C692.194 58.7547 692.264 59.041 692.405 59.1929C692.545 59.3331 692.738 59.4032 692.983 59.4032C693.17 59.4032 693.363 59.3799 693.562 59.3331C693.76 59.2864 693.936 59.228 694.087 59.1578L694.403 60.9458C694.087 61.0977 693.719 61.2145 693.299 61.2963C692.878 61.3781 692.498 61.419 692.159 61.419C691.423 61.419 690.85 61.2262 690.441 60.8406C690.044 60.4433 689.846 59.8824 689.846 59.1578V48.4829ZM699.703 61.4541C698.955 61.4541 698.283 61.3314 697.688 61.086C697.092 60.8289 696.583 60.4783 696.163 60.0343C695.742 59.5785 695.415 59.0644 695.181 58.4918C694.959 57.9192 694.848 57.3173 694.848 56.6863C694.848 55.8216 695.041 55.0328 695.426 54.3199C695.824 53.5954 696.385 53.017 697.109 52.5846C697.834 52.1522 698.692 51.9361 699.686 51.9361C700.679 51.9361 701.532 52.1522 702.245 52.5846C702.958 53.017 703.489 53.5837 703.84 54.2849L701.544 54.986C701.345 54.6471 701.082 54.3901 700.755 54.2148C700.428 54.0278 700.066 53.9343 699.668 53.9343C699.224 53.9343 698.815 54.0512 698.441 54.2849C698.079 54.5069 697.793 54.8283 697.582 55.249C697.372 55.658 697.267 56.1371 697.267 56.6863C697.267 57.2239 697.372 57.703 697.582 58.1237C697.804 58.5327 698.097 58.8599 698.459 59.1053C698.821 59.339 699.224 59.4558 699.668 59.4558C699.949 59.4558 700.212 59.4091 700.457 59.3156C700.714 59.2221 700.942 59.0936 701.141 58.93C701.339 58.7664 701.485 58.5794 701.579 58.3691L703.875 59.0702C703.665 59.5259 703.355 59.9349 702.946 60.2972C702.549 60.6595 702.076 60.9458 701.526 61.1561C700.989 61.3548 700.381 61.4541 699.703 61.4541ZM709.477 61.4541C708.729 61.4541 708.057 61.3314 707.461 61.086C706.865 60.8289 706.357 60.4783 705.936 60.0343C705.527 59.5902 705.211 59.0819 704.989 58.5093C704.767 57.9367 704.656 57.3349 704.656 56.7038C704.656 56.0611 704.767 55.4535 704.989 54.8809C705.211 54.3083 705.527 53.7999 705.936 53.3559C706.357 52.9118 706.865 52.5671 707.461 52.3217C708.057 52.0646 708.729 51.9361 709.477 51.9361C710.225 51.9361 710.891 52.0646 711.475 52.3217C712.071 52.5671 712.579 52.9118 713 53.3559C713.421 53.7999 713.736 54.3083 713.947 54.8809C714.169 55.4535 714.28 56.0611 714.28 56.7038C714.28 57.3349 714.169 57.9367 713.947 58.5093C713.736 59.0819 713.421 59.5902 713 60.0343C712.591 60.4783 712.088 60.8289 711.493 61.086C710.897 61.3314 710.225 61.4541 709.477 61.4541ZM707.075 56.7038C707.075 57.2414 707.18 57.7205 707.391 58.1412C707.601 58.5502 707.887 58.8715 708.25 59.1053C708.612 59.339 709.021 59.4558 709.477 59.4558C709.921 59.4558 710.324 59.339 710.686 59.1053C711.048 58.8599 711.335 58.5327 711.545 58.1237C711.767 57.703 711.878 57.2239 711.878 56.6863C711.878 56.1605 711.767 55.6872 711.545 55.2665C711.335 54.8458 711.048 54.5186 710.686 54.2849C710.324 54.0512 709.921 53.9343 709.477 53.9343C709.021 53.9343 708.612 54.057 708.25 54.3024C707.887 54.5361 707.601 54.8633 707.391 55.284C707.18 55.693 707.075 56.1663 707.075 56.7038ZM730.133 61.2788H727.784V56.1254C727.784 55.4009 727.656 54.8692 727.399 54.5303C727.153 54.1797 726.809 54.0044 726.365 54.0044C725.909 54.0044 725.471 54.1856 725.05 54.5478C724.641 54.8984 724.349 55.36 724.174 55.9326V61.2788H721.825V56.1254C721.825 55.3892 721.696 54.8516 721.439 54.5128C721.194 54.1739 720.849 54.0044 720.405 54.0044C719.949 54.0044 719.511 54.1797 719.09 54.5303C718.681 54.8809 718.389 55.3424 718.214 55.9151V61.2788H715.865V52.0938H717.986V53.7941C718.336 53.1981 718.804 52.7424 719.388 52.4269C719.972 52.0997 720.644 51.9361 721.404 51.9361C722.164 51.9361 722.754 52.123 723.174 52.497C723.607 52.8709 723.881 53.3325 723.998 53.8817C724.372 53.2507 724.845 52.7716 725.418 52.4444C726.002 52.1055 726.657 51.9361 727.381 51.9361C727.954 51.9361 728.415 52.0412 728.766 52.2516C729.128 52.4502 729.409 52.7248 729.607 53.0754C729.806 53.4143 729.94 53.7999 730.011 54.2323C730.092 54.6647 730.133 55.1029 730.133 55.5469V61.2788ZM736.438 61.4541C735.701 61.4541 735.035 61.3314 734.439 61.086C733.843 60.8289 733.335 60.4842 732.914 60.0518C732.494 59.6077 732.167 59.1053 731.933 58.5443C731.711 57.9717 731.6 57.3699 731.6 56.7389C731.6 55.8625 731.793 55.062 732.178 54.3375C732.576 53.613 733.136 53.0345 733.861 52.6021C734.597 52.1581 735.462 51.9361 736.455 51.9361C737.46 51.9361 738.319 52.1581 739.032 52.6021C739.745 53.0345 740.288 53.613 740.662 54.3375C741.048 55.0503 741.241 55.8216 741.241 56.6513C741.241 56.7915 741.235 56.9376 741.223 57.0895C741.211 57.2297 741.2 57.3466 741.188 57.44H734.089C734.136 57.9075 734.27 58.3165 734.492 58.667C734.726 59.0176 735.018 59.2864 735.368 59.4734C735.731 59.6486 736.116 59.7363 736.525 59.7363C736.993 59.7363 737.431 59.6253 737.84 59.4032C738.261 59.1695 738.547 58.8657 738.699 58.4918L740.715 59.0527C740.493 59.5201 740.171 59.9349 739.751 60.2972C739.342 60.6595 738.857 60.9458 738.296 61.1561C737.735 61.3548 737.115 61.4541 736.438 61.4541ZM734.036 55.9501H738.839C738.792 55.4827 738.658 55.0795 738.436 54.7406C738.226 54.3901 737.945 54.1213 737.595 53.9343C737.244 53.7357 736.853 53.6363 736.42 53.6363C735.999 53.6363 735.614 53.7357 735.263 53.9343C734.924 54.1213 734.644 54.3901 734.422 54.7406C734.212 55.0795 734.083 55.4827 734.036 55.9501ZM747.11 61.2788V48.8335H752.614C753.187 48.8335 753.713 48.9503 754.192 49.1841C754.683 49.4178 755.103 49.7333 755.454 50.1306C755.816 50.5279 756.091 50.972 756.278 51.4628C756.476 51.9536 756.576 52.4561 756.576 52.9702C756.576 53.4961 756.482 54.0044 756.295 54.4952C756.12 54.9743 755.863 55.395 755.524 55.7573C755.185 56.1196 754.788 56.4 754.332 56.5987L757.172 61.2788H754.507L751.948 57.107H749.529V61.2788H747.11ZM749.529 54.986H752.562C752.866 54.986 753.134 54.8984 753.368 54.7231C753.602 54.5361 753.789 54.2907 753.929 53.9869C754.069 53.6831 754.139 53.3442 754.139 52.9702C754.139 52.5729 754.057 52.2282 753.894 51.9361C753.73 51.6322 753.52 51.3927 753.263 51.2174C753.017 51.0421 752.749 50.9545 752.457 50.9545H749.529V54.986ZM757.755 58.5619C757.755 57.9659 757.918 57.4459 758.245 57.0018C758.584 56.5461 759.052 56.1955 759.648 55.9501C760.244 55.7047 760.927 55.582 761.698 55.582C762.084 55.582 762.476 55.6112 762.873 55.6696C763.27 55.7281 763.615 55.8216 763.907 55.9501V55.4593C763.907 54.875 763.732 54.4251 763.381 54.1096C763.042 53.7941 762.534 53.6363 761.856 53.6363C761.354 53.6363 760.875 53.724 760.419 53.8993C759.963 54.0745 759.484 54.3316 758.982 54.6705L758.228 53.128C758.835 52.7307 759.455 52.4327 760.086 52.234C760.729 52.0354 761.4 51.9361 762.102 51.9361C763.41 51.9361 764.427 52.2633 765.152 52.9177C765.888 53.5721 766.256 54.5069 766.256 55.7222V58.6495C766.256 58.8949 766.297 59.0702 766.379 59.1754C766.472 59.2805 766.618 59.3448 766.817 59.3682V61.2788C766.606 61.3139 766.414 61.3431 766.238 61.3665C766.075 61.3898 765.935 61.4015 765.818 61.4015C765.35 61.4015 764.994 61.2963 764.748 61.086C764.515 60.8757 764.369 60.6186 764.31 60.3147L764.258 59.8415C763.86 60.3556 763.364 60.7529 762.768 61.0334C762.172 61.3139 761.564 61.4541 760.945 61.4541C760.337 61.4541 759.788 61.3314 759.297 61.086C758.818 60.8289 758.438 60.4842 758.158 60.0518C757.889 59.6077 757.755 59.1111 757.755 58.5619ZM763.469 59.0351C763.597 58.8949 763.703 58.7547 763.784 58.6145C763.866 58.4742 763.907 58.3457 763.907 58.2288V57.2998C763.627 57.183 763.323 57.0953 762.996 57.0369C762.668 56.9668 762.359 56.9317 762.067 56.9317C761.459 56.9317 760.956 57.0661 760.559 57.3349C760.173 57.592 759.981 57.9367 759.981 58.3691C759.981 58.6028 760.045 58.8248 760.173 59.0351C760.302 59.2455 760.489 59.4149 760.734 59.5435C760.98 59.672 761.272 59.7363 761.611 59.7363C761.961 59.7363 762.306 59.672 762.645 59.5435C762.984 59.4032 763.259 59.2338 763.469 59.0351ZM782.719 61.2788H780.37V56.1254C780.37 55.4009 780.242 54.8692 779.985 54.5303C779.739 54.1797 779.395 54.0044 778.95 54.0044C778.495 54.0044 778.056 54.1856 777.636 54.5478C777.227 54.8984 776.935 55.36 776.759 55.9326V61.2788H774.411V56.1254C774.411 55.3892 774.282 54.8516 774.025 54.5128C773.78 54.1739 773.435 54.0044 772.991 54.0044C772.535 54.0044 772.097 54.1797 771.676 54.5303C771.267 54.8809 770.975 55.3424 770.8 55.9151V61.2788H768.451V52.0938H770.572V53.7941C770.922 53.1981 771.39 52.7424 771.974 52.4269C772.558 52.0997 773.23 51.9361 773.99 51.9361C774.749 51.9361 775.34 52.123 775.76 52.497C776.193 52.8709 776.467 53.3325 776.584 53.8817C776.958 53.2507 777.431 52.7716 778.004 52.4444C778.588 52.1055 779.243 51.9361 779.967 51.9361C780.54 51.9361 781.001 52.0412 781.352 52.2516C781.714 52.4502 781.995 52.7248 782.193 53.0754C782.392 53.4143 782.526 53.7999 782.596 54.2323C782.678 54.6647 782.719 55.1029 782.719 55.5469V61.2788ZM789.024 61.4541C788.287 61.4541 787.621 61.3314 787.025 61.086C786.429 60.8289 785.921 60.4842 785.5 60.0518C785.08 59.6077 784.752 59.1053 784.519 58.5443C784.297 57.9717 784.186 57.3699 784.186 56.7389C784.186 55.8625 784.378 55.062 784.764 54.3375C785.161 53.613 785.722 53.0345 786.447 52.6021C787.183 52.1581 788.048 51.9361 789.041 51.9361C790.046 51.9361 790.905 52.1581 791.618 52.6021C792.331 53.0345 792.874 53.613 793.248 54.3375C793.634 55.0503 793.826 55.8216 793.826 56.6513C793.826 56.7915 793.821 56.9376 793.809 57.0895C793.797 57.2297 793.785 57.3466 793.774 57.44H786.675C786.721 57.9075 786.856 58.3165 787.078 58.667C787.312 59.0176 787.604 59.2864 787.954 59.4734C788.317 59.6486 788.702 59.7363 789.111 59.7363C789.579 59.7363 790.017 59.6253 790.426 59.4032C790.847 59.1695 791.133 58.8657 791.285 58.4918L793.301 59.0527C793.078 59.5201 792.757 59.9349 792.336 60.2972C791.927 60.6595 791.442 60.9458 790.882 61.1561C790.321 61.3548 789.701 61.4541 789.024 61.4541ZM786.622 55.9501H791.425C791.378 55.4827 791.244 55.0795 791.022 54.7406C790.811 54.3901 790.531 54.1213 790.18 53.9343C789.83 53.7357 789.438 53.6363 789.006 53.6363C788.585 53.6363 788.2 53.7357 787.849 53.9343C787.51 54.1213 787.23 54.3901 787.008 54.7406C786.797 55.0795 786.669 55.4827 786.622 55.9501ZM798.64 61.4541C797.857 61.4541 797.109 61.3256 796.397 61.0685C795.684 60.8114 795.07 60.4316 794.556 59.9291L795.398 58.4041C795.947 58.8482 796.484 59.1754 797.01 59.3857C797.548 59.5961 798.062 59.7012 798.553 59.7012C799.008 59.7012 799.371 59.6194 799.639 59.4558C799.92 59.2922 800.06 59.0468 800.06 58.7196C800.06 58.4976 799.984 58.3282 799.832 58.2113C799.68 58.0828 799.458 57.9717 799.166 57.8783C798.886 57.7848 798.541 57.6796 798.132 57.5627C797.454 57.3407 796.887 57.1245 796.432 56.9142C795.976 56.7038 795.631 56.4409 795.398 56.1254C795.175 55.7982 795.064 55.3833 795.064 54.8809C795.064 54.2732 795.216 53.7532 795.52 53.3208C795.836 52.8768 796.268 52.532 796.817 52.2866C797.378 52.0412 798.033 51.9185 798.781 51.9185C799.435 51.9185 800.054 52.0237 800.639 52.234C801.223 52.4327 801.755 52.7599 802.234 53.2156L801.287 54.7056C800.82 54.3433 800.376 54.0804 799.955 53.9168C799.534 53.7415 799.108 53.6539 798.675 53.6539C798.43 53.6539 798.196 53.6831 797.974 53.7415C797.764 53.7999 797.589 53.8993 797.448 54.0395C797.32 54.168 797.256 54.355 797.256 54.6004C797.256 54.8224 797.314 54.9977 797.431 55.1263C797.559 55.2431 797.746 55.3483 797.992 55.4418C798.249 55.5353 798.559 55.6404 798.921 55.7573C799.657 55.9676 800.276 56.1838 800.779 56.4059C801.293 56.6279 801.679 56.9025 801.936 57.2297C802.193 57.5452 802.321 57.9834 802.321 58.5443C802.321 59.4558 801.988 60.1687 801.322 60.6828C800.656 61.197 799.762 61.4541 798.64 61.4541ZM812.455 61.2788H810.106V56.1254C810.106 55.4126 809.966 54.8809 809.686 54.5303C809.417 54.1797 809.043 54.0044 808.564 54.0044C808.284 54.0044 807.986 54.0862 807.67 54.2498C807.354 54.4134 807.068 54.6413 806.811 54.9334C806.566 55.2139 806.385 55.5411 806.268 55.9151V61.2788H803.919V48.4829H806.268V53.7941C806.607 53.2098 807.068 52.7541 807.652 52.4269C808.237 52.0997 808.874 51.9361 809.563 51.9361C810.159 51.9361 810.644 52.0412 811.018 52.2516C811.392 52.4502 811.684 52.7248 811.894 53.0754C812.105 53.4143 812.251 53.7999 812.333 54.2323C812.414 54.653 812.455 55.0912 812.455 55.5469V61.2788ZM824.213 60.8055C824.014 60.8873 823.774 60.9808 823.494 61.086C823.214 61.1912 822.91 61.273 822.582 61.3314C822.267 61.4015 821.946 61.4366 821.618 61.4366C821.186 61.4366 820.789 61.3606 820.426 61.2087C820.064 61.0568 819.772 60.8172 819.55 60.49C819.34 60.1511 819.235 59.7129 819.235 59.1754V53.8993H818.025V52.0938H819.235V49.1139H821.583V52.0938H823.511V53.8993H821.583V58.3866C821.595 58.7021 821.683 58.93 821.846 59.0702C822.01 59.2104 822.214 59.2805 822.46 59.2805C822.705 59.2805 822.945 59.2396 823.178 59.1578C823.412 59.076 823.599 59.0059 823.739 58.9475L824.213 60.8055ZM829.575 61.4541C828.827 61.4541 828.155 61.3314 827.559 61.086C826.963 60.8289 826.455 60.4783 826.034 60.0343C825.625 59.5902 825.31 59.0819 825.088 58.5093C824.866 57.9367 824.755 57.3349 824.755 56.7038C824.755 56.0611 824.866 55.4535 825.088 54.8809C825.31 54.3083 825.625 53.7999 826.034 53.3559C826.455 52.9118 826.963 52.5671 827.559 52.3217C828.155 52.0646 828.827 51.9361 829.575 51.9361C830.323 51.9361 830.989 52.0646 831.573 52.3217C832.169 52.5671 832.678 52.9118 833.098 53.3559C833.519 53.7999 833.835 54.3083 834.045 54.8809C834.267 55.4535 834.378 56.0611 834.378 56.7038C834.378 57.3349 834.267 57.9367 834.045 58.5093C833.835 59.0819 833.519 59.5902 833.098 60.0343C832.689 60.4783 832.187 60.8289 831.591 61.086C830.995 61.3314 830.323 61.4541 829.575 61.4541ZM827.174 56.7038C827.174 57.2414 827.279 57.7205 827.489 58.1412C827.7 58.5502 827.986 58.8715 828.348 59.1053C828.71 59.339 829.119 59.4558 829.575 59.4558C830.019 59.4558 830.422 59.339 830.785 59.1053C831.147 58.8599 831.433 58.5327 831.644 58.1237C831.866 57.703 831.977 57.2239 831.977 56.6863C831.977 56.1605 831.866 55.6872 831.644 55.2665C831.433 54.8458 831.147 54.5186 830.785 54.2849C830.422 54.0512 830.019 53.9343 829.575 53.9343C829.119 53.9343 828.71 54.057 828.348 54.3024C827.986 54.5361 827.7 54.8633 827.489 55.284C827.279 55.693 827.174 56.1663 827.174 56.7038ZM850.551 61.2788V53.1105L847.361 59.1929H846.011L842.821 53.1105V61.2788H840.402V48.8335H842.996L846.677 55.9151L850.394 48.8335H852.97V61.2788H850.551ZM865.595 58.0711C865.595 58.7722 865.414 59.3623 865.052 59.8415C864.689 60.3089 864.199 60.6653 863.579 60.9107C862.972 61.1561 862.305 61.2788 861.581 61.2788H855.569V48.8335H862.229C862.814 48.8335 863.316 48.9912 863.737 49.3068C864.169 49.6106 864.497 50.0079 864.719 50.4987C864.952 50.9778 865.069 51.4803 865.069 52.0062C865.069 52.6021 864.917 53.1689 864.613 53.7064C864.31 54.244 863.865 54.6413 863.281 54.8984C863.994 55.1087 864.555 55.4885 864.964 56.0378C865.385 56.587 865.595 57.2648 865.595 58.0711ZM863.158 57.6153C863.158 57.2998 863.094 57.0194 862.966 56.774C862.837 56.5169 862.662 56.3182 862.44 56.178C862.229 56.0261 861.984 55.9501 861.704 55.9501H857.988V59.228H861.581C861.873 59.228 862.136 59.1578 862.37 59.0176C862.615 58.8657 862.808 58.667 862.948 58.4216C863.088 58.1762 863.158 57.9075 863.158 57.6153ZM857.988 50.9019V54.0395H861.213C861.482 54.0395 861.727 53.9752 861.949 53.8467C862.171 53.7181 862.346 53.537 862.475 53.3033C862.615 53.0696 862.685 52.7891 862.685 52.4619C862.685 52.1464 862.621 51.8718 862.492 51.6381C862.376 51.4044 862.212 51.2232 862.002 51.0947C861.803 50.9661 861.575 50.9019 861.318 50.9019H857.988ZM877.632 61.2788V53.1105L874.441 59.1929H873.092L869.902 53.1105V61.2788H867.483V48.8335H870.077L873.758 55.9151L877.474 48.8335H880.051V61.2788H877.632ZM887.088 56.5987V48.7108H889.437V56.5987H887.088ZM887.088 61.2788V58.632H889.437V61.2788H887.088Z" fill="white"/>
<path d="M683 99L676 79.5H678H692L683 99Z" fill="#F2632E"/>
<circle cx="300" cy="120" r="75" stroke="#DFEEDB" stroke-width="24.7253"/>
<path d="M300 45C341.421 45 375 78.5786 375 120C375 161.421 341.421 195 300 195C276.745 195 255.962 184.416 242.205 167.802" stroke="#EF6C00" stroke-width="24.7253" stroke-linecap="round"/>
<path d="M287.393 117.406C287.297 116.962 287.129 116.632 286.889 116.416C286.649 116.188 286.307 116.074 285.863 116.074C285.179 116.074 284.687 116.374 284.387 116.974C284.087 117.562 283.931 118.498 283.919 119.782C284.183 119.362 284.561 119.032 285.053 118.792C285.557 118.552 286.109 118.432 286.709 118.432C287.885 118.432 288.827 118.804 289.535 119.548C290.255 120.292 290.615 121.33 290.615 122.662C290.615 123.538 290.435 124.306 290.075 124.966C289.727 125.626 289.211 126.142 288.527 126.514C287.855 126.886 287.057 127.072 286.133 127.072C284.285 127.072 283.001 126.496 282.281 125.344C281.561 124.18 281.201 122.512 281.201 120.34C281.201 118.06 281.579 116.368 282.335 115.264C283.103 114.148 284.327 113.59 286.007 113.59C286.907 113.59 287.663 113.77 288.275 114.13C288.899 114.478 289.367 114.94 289.679 115.516C290.003 116.092 290.195 116.722 290.255 117.406H287.393ZM285.971 120.862C285.455 120.862 285.023 121.018 284.675 121.33C284.339 121.63 284.171 122.062 284.171 122.626C284.171 123.202 284.327 123.652 284.639 123.976C284.963 124.3 285.419 124.462 286.007 124.462C286.535 124.462 286.949 124.306 287.249 123.994C287.561 123.67 287.717 123.232 287.717 122.68C287.717 122.116 287.567 121.672 287.267 121.348C286.967 121.024 286.535 120.862 285.971 120.862ZM301.608 116.542H295.992V119.026C296.232 118.762 296.568 118.546 297 118.378C297.432 118.21 297.9 118.126 298.404 118.126C299.304 118.126 300.048 118.33 300.636 118.738C301.236 119.146 301.674 119.674 301.95 120.322C302.226 120.97 302.364 121.672 302.364 122.428C302.364 123.832 301.968 124.948 301.176 125.776C300.384 126.592 299.268 127 297.828 127C296.868 127 296.034 126.838 295.326 126.514C294.618 126.178 294.072 125.716 293.688 125.128C293.304 124.54 293.094 123.862 293.058 123.094H296.064C296.136 123.466 296.31 123.778 296.586 124.03C296.862 124.27 297.24 124.39 297.72 124.39C298.284 124.39 298.704 124.21 298.98 123.85C299.256 123.49 299.394 123.01 299.394 122.41C299.394 121.822 299.25 121.372 298.962 121.06C298.674 120.748 298.254 120.592 297.702 120.592C297.294 120.592 296.958 120.694 296.694 120.898C296.43 121.09 296.256 121.348 296.172 121.672H293.202V113.842H301.608V116.542ZM303.811 117.172C303.811 116.2 304.087 115.45 304.639 114.922C305.203 114.394 305.929 114.13 306.817 114.13C307.705 114.13 308.425 114.394 308.977 114.922C309.529 115.45 309.805 116.2 309.805 117.172C309.805 118.144 309.529 118.894 308.977 119.422C308.425 119.95 307.705 120.214 306.817 120.214C305.929 120.214 305.203 119.95 304.639 119.422C304.087 118.894 303.811 118.144 303.811 117.172ZM316.033 114.328L309.103 127H306.133L313.063 114.328H316.033ZM306.799 115.93C306.223 115.93 305.935 116.344 305.935 117.172C305.935 117.988 306.223 118.396 306.799 118.396C307.075 118.396 307.291 118.294 307.447 118.09C307.603 117.886 307.681 117.58 307.681 117.172C307.681 116.344 307.387 115.93 306.799 115.93ZM312.379 124.156C312.379 123.184 312.655 122.434 313.207 121.906C313.759 121.378 314.479 121.114 315.367 121.114C316.255 121.114 316.975 121.378 317.527 121.906C318.079 122.434 318.355 123.184 318.355 124.156C318.355 125.128 318.079 125.878 317.527 126.406C316.975 126.934 316.255 127.198 315.367 127.198C314.479 127.198 313.759 126.934 313.207 126.406C312.655 125.878 312.379 125.128 312.379 124.156ZM315.349 122.914C315.073 122.914 314.857 123.016 314.701 123.22C314.557 123.424 314.485 123.736 314.485 124.156C314.485 124.972 314.773 125.38 315.349 125.38C315.625 125.38 315.841 125.278 315.997 125.074C316.153 124.87 316.231 124.564 316.231 124.156C316.231 123.748 316.153 123.442 315.997 123.238C315.841 123.022 315.625 122.914 315.349 122.914Z" fill="#F28933"/>
<path d="M104.152 175.8V171.672H111.864V195H107.256V175.8H104.152ZM116.29 183.032C116.29 179.341 116.951 176.451 118.274 174.36C119.618 172.269 121.836 171.224 124.93 171.224C128.023 171.224 130.231 172.269 131.554 174.36C132.898 176.451 133.57 179.341 133.57 183.032C133.57 186.744 132.898 189.656 131.554 191.768C130.231 193.88 128.023 194.936 124.93 194.936C121.836 194.936 119.618 193.88 118.274 191.768C116.951 189.656 116.29 186.744 116.29 183.032ZM129.154 183.032C129.154 181.453 129.047 180.131 128.834 179.064C128.642 177.976 128.236 177.091 127.618 176.408C127.02 175.725 126.124 175.384 124.93 175.384C123.735 175.384 122.828 175.725 122.21 176.408C121.612 177.091 121.207 177.976 120.994 179.064C120.802 180.131 120.706 181.453 120.706 183.032C120.706 184.653 120.802 186.019 120.994 187.128C121.186 188.216 121.591 189.101 122.21 189.784C122.828 190.445 123.735 190.776 124.93 190.776C126.124 190.776 127.031 190.445 127.65 189.784C128.268 189.101 128.674 188.216 128.866 187.128C129.058 186.019 129.154 184.653 129.154 183.032Z" fill="#333333"/>
<rect x="65" y="174" width="22" height="22" rx="8" fill="#DFEEDB"/>
<path d="M65.96 217V208.48H68.984C69.904 208.48 70.672 208.672 71.288 209.056C71.904 209.432 72.364 209.944 72.668 210.592C72.98 211.232 73.136 211.944 73.136 212.728C73.136 213.592 72.964 214.344 72.62 214.984C72.284 215.624 71.804 216.12 71.18 216.472C70.556 216.824 69.824 217 68.984 217H65.96ZM71.768 212.728C71.768 212.128 71.656 211.6 71.432 211.144C71.216 210.68 70.9 210.32 70.484 210.064C70.076 209.8 69.576 209.668 68.984 209.668H67.304V215.812H68.984C69.584 215.812 70.088 215.676 70.496 215.404C70.912 215.132 71.228 214.764 71.444 214.3C71.66 213.836 71.768 213.312 71.768 212.728ZM73.8555 215.164C73.8555 214.764 73.9675 214.416 74.1915 214.12C74.4235 213.816 74.7395 213.584 75.1395 213.424C75.5395 213.256 76.0035 213.172 76.5315 213.172C76.8115 213.172 77.0955 213.192 77.3835 213.232C77.6795 213.272 77.9395 213.336 78.1635 213.424V213.028C78.1635 212.588 78.0315 212.244 77.7675 211.996C77.5035 211.748 77.1235 211.624 76.6275 211.624C76.2755 211.624 75.9435 211.688 75.6315 211.816C75.3195 211.936 74.9875 212.108 74.6355 212.332L74.1915 211.444C74.6075 211.164 75.0235 210.956 75.4395 210.82C75.8635 210.684 76.3075 210.616 76.7715 210.616C77.6115 210.616 78.2715 210.84 78.7515 211.288C79.2395 211.728 79.4835 212.356 79.4835 213.172V215.512C79.4835 215.664 79.5075 215.772 79.5555 215.836C79.6115 215.9 79.7035 215.936 79.8315 215.944V217C79.7115 217.024 79.6035 217.04 79.5075 217.048C79.4115 217.056 79.3315 217.06 79.2675 217.06C78.9875 217.06 78.7755 216.992 78.6315 216.856C78.4875 216.72 78.4035 216.56 78.3795 216.376L78.3435 216.016C78.0715 216.368 77.7235 216.64 77.2995 216.832C76.8755 217.024 76.4475 217.12 76.0155 217.12C75.5995 217.12 75.2275 217.036 74.8995 216.868C74.5715 216.692 74.3155 216.456 74.1315 216.16C73.9475 215.864 73.8555 215.532 73.8555 215.164ZM77.8515 215.548C77.9475 215.444 78.0235 215.34 78.0795 215.236C78.1355 215.132 78.1635 215.04 78.1635 214.96V214.24C77.9395 214.152 77.7035 214.088 77.4555 214.048C77.2075 214 76.9635 213.976 76.7235 213.976C76.2435 213.976 75.8515 214.072 75.5475 214.264C75.2515 214.456 75.1035 214.72 75.1035 215.056C75.1035 215.24 75.1515 215.416 75.2475 215.584C75.3515 215.752 75.4955 215.888 75.6795 215.992C75.8715 216.096 76.1075 216.148 76.3875 216.148C76.6755 216.148 76.9515 216.092 77.2155 215.98C77.4795 215.868 77.6915 215.724 77.8515 215.548ZM81.0783 218.476C81.1983 218.492 81.3143 218.508 81.4263 218.524C81.5463 218.548 81.6423 218.56 81.7143 218.56C81.8503 218.56 81.9663 218.516 82.0623 218.428C82.1663 218.348 82.2703 218.196 82.3743 217.972C82.4783 217.748 82.6063 217.424 82.7583 217L80.1783 210.724H81.5583L83.4783 215.656L85.1823 210.724H86.4543L83.6103 218.452C83.5223 218.684 83.3943 218.896 83.2263 219.088C83.0583 219.288 82.8503 219.444 82.6023 219.556C82.3543 219.668 82.0623 219.724 81.7263 219.724C81.6303 219.724 81.5303 219.716 81.4263 219.7C81.3223 219.684 81.2063 219.66 81.0783 219.628V218.476ZM89.4928 217.12C88.9648 217.12 88.4648 217.036 87.9928 216.868C87.5208 216.692 87.1168 216.432 86.7808 216.088L87.2728 215.2C87.6328 215.52 87.9928 215.752 88.3528 215.896C88.7208 216.04 89.0848 216.112 89.4448 216.112C89.8128 216.112 90.1128 216.044 90.3448 215.908C90.5768 215.764 90.6928 215.556 90.6928 215.284C90.6928 215.084 90.6328 214.936 90.5128 214.84C90.3928 214.744 90.2168 214.66 89.9848 214.588C89.7608 214.516 89.4888 214.436 89.1688 214.348C88.7208 214.212 88.3448 214.072 88.0408 213.928C87.7368 213.776 87.5088 213.592 87.3568 213.376C87.2048 213.16 87.1288 212.884 87.1288 212.548C87.1288 212.14 87.2328 211.792 87.4408 211.504C87.6488 211.216 87.9368 210.996 88.3048 210.844C88.6808 210.692 89.1128 210.616 89.6008 210.616C90.0568 210.616 90.4768 210.688 90.8608 210.832C91.2528 210.968 91.5968 211.184 91.8928 211.48L91.3288 212.356C91.0488 212.1 90.7608 211.912 90.4648 211.792C90.1768 211.672 89.8648 211.612 89.5288 211.612C89.3368 211.612 89.1528 211.636 88.9768 211.684C88.8008 211.724 88.6528 211.804 88.5328 211.924C88.4208 212.036 88.3648 212.196 88.3648 212.404C88.3648 212.572 88.4128 212.708 88.5088 212.812C88.6048 212.916 88.7488 213.004 88.9408 213.076C89.1328 213.148 89.3688 213.228 89.6488 213.316C90.1368 213.46 90.5528 213.604 90.8968 213.748C91.2408 213.884 91.5048 214.064 91.6888 214.288C91.8808 214.504 91.9768 214.804 91.9768 215.188C91.9768 215.796 91.7488 216.272 91.2928 216.616C90.8448 216.952 90.2448 217.12 89.4928 217.12ZM99.6481 211.864C99.1361 211.872 98.6801 211.988 98.2801 212.212C97.8881 212.436 97.6081 212.752 97.4401 213.16V217H96.1201V210.724H97.3441V212.128C97.5601 211.696 97.8441 211.352 98.1961 211.096C98.5481 210.832 98.9201 210.688 99.3121 210.664C99.3921 210.664 99.4561 210.664 99.5041 210.664C99.5601 210.664 99.6081 210.668 99.6481 210.676V211.864ZM103.335 217.12C102.847 217.12 102.403 217.036 102.003 216.868C101.611 216.692 101.271 216.456 100.983 216.16C100.695 215.856 100.471 215.512 100.311 215.128C100.159 214.736 100.083 214.32 100.083 213.88C100.083 213.288 100.219 212.748 100.491 212.26C100.763 211.764 101.143 211.368 101.631 211.072C102.119 210.768 102.691 210.616 103.347 210.616C104.003 210.616 104.567 210.768 105.039 211.072C105.519 211.368 105.891 211.76 106.155 212.248C106.419 212.736 106.551 213.26 106.551 213.82C106.551 213.916 106.547 214.008 106.539 214.096C106.531 214.176 106.523 214.244 106.515 214.3H101.487C101.511 214.668 101.611 214.992 101.787 215.272C101.971 215.544 102.203 215.76 102.483 215.92C102.763 216.072 103.063 216.148 103.383 216.148C103.735 216.148 104.067 216.06 104.379 215.884C104.699 215.708 104.915 215.476 105.027 215.188L106.155 215.512C106.019 215.816 105.811 216.092 105.531 216.34C105.259 216.58 104.935 216.772 104.559 216.916C104.183 217.052 103.775 217.12 103.335 217.12ZM101.451 213.424H105.243C105.219 213.064 105.115 212.748 104.931 212.476C104.755 212.196 104.527 211.98 104.247 211.828C103.975 211.668 103.671 211.588 103.335 211.588C103.007 211.588 102.703 211.668 102.423 211.828C102.151 211.98 101.927 212.196 101.751 212.476C101.575 212.748 101.475 213.064 101.451 213.424ZM117.228 217H115.908V213.484C115.908 212.9 115.812 212.472 115.62 212.2C115.428 211.928 115.148 211.792 114.78 211.792C114.412 211.792 114.068 211.932 113.748 212.212C113.436 212.484 113.216 212.84 113.088 213.28V217H111.768V213.484C111.768 212.9 111.672 212.472 111.48 212.2C111.288 211.928 111.012 211.792 110.652 211.792C110.284 211.792 109.94 211.928 109.62 212.2C109.308 212.472 109.084 212.828 108.948 213.268V217H107.628V210.724H108.828V211.984C109.076 211.544 109.4 211.208 109.8 210.976C110.208 210.736 110.672 210.616 111.192 210.616C111.712 210.616 112.12 210.752 112.416 211.024C112.72 211.296 112.908 211.636 112.98 212.044C113.252 211.58 113.584 211.228 113.976 210.988C114.376 210.74 114.832 210.616 115.344 210.616C115.712 210.616 116.02 210.684 116.268 210.82C116.516 210.956 116.708 211.144 116.844 211.384C116.98 211.616 117.076 211.888 117.132 212.2C117.196 212.504 117.228 212.828 117.228 213.172V217ZM118.293 215.164C118.293 214.764 118.405 214.416 118.629 214.12C118.861 213.816 119.177 213.584 119.577 213.424C119.977 213.256 120.441 213.172 120.969 213.172C121.249 213.172 121.533 213.192 121.821 213.232C122.117 213.272 122.377 213.336 122.601 213.424V213.028C122.601 212.588 122.469 212.244 122.205 211.996C121.941 211.748 121.561 211.624 121.065 211.624C120.713 211.624 120.381 211.688 120.069 211.816C119.757 211.936 119.425 212.108 119.073 212.332L118.629 211.444C119.045 211.164 119.461 210.956 119.877 210.82C120.301 210.684 120.745 210.616 121.209 210.616C122.049 210.616 122.709 210.84 123.189 211.288C123.677 211.728 123.921 212.356 123.921 213.172V215.512C123.921 215.664 123.945 215.772 123.993 215.836C124.049 215.9 124.141 215.936 124.269 215.944V217C124.149 217.024 124.041 217.04 123.945 217.048C123.849 217.056 123.769 217.06 123.705 217.06C123.425 217.06 123.213 216.992 123.069 216.856C122.925 216.72 122.841 216.56 122.817 216.376L122.781 216.016C122.509 216.368 122.161 216.64 121.737 216.832C121.313 217.024 120.885 217.12 120.453 217.12C120.037 217.12 119.665 217.036 119.337 216.868C119.009 216.692 118.753 216.456 118.569 216.16C118.385 215.864 118.293 215.532 118.293 215.164ZM122.289 215.548C122.385 215.444 122.461 215.34 122.517 215.236C122.573 215.132 122.601 215.04 122.601 214.96V214.24C122.377 214.152 122.141 214.088 121.893 214.048C121.645 214 121.401 213.976 121.161 213.976C120.681 213.976 120.289 214.072 119.985 214.264C119.689 214.456 119.541 214.72 119.541 215.056C119.541 215.24 119.589 215.416 119.685 215.584C119.789 215.752 119.933 215.888 120.117 215.992C120.309 216.096 120.545 216.148 120.825 216.148C121.113 216.148 121.389 216.092 121.653 215.98C121.917 215.868 122.129 215.724 122.289 215.548ZM125.522 217V210.724H126.842V217H125.522ZM125.522 209.692V208.24H126.842V209.692H125.522ZM134.057 217H132.737V213.484C132.737 212.9 132.641 212.472 132.449 212.2C132.265 211.928 131.989 211.792 131.621 211.792C131.365 211.792 131.109 211.856 130.853 211.984C130.605 212.112 130.381 212.288 130.181 212.512C129.981 212.728 129.837 212.98 129.749 213.268V217H128.429V210.724H129.629V211.984C129.789 211.704 129.997 211.464 130.253 211.264C130.517 211.056 130.813 210.896 131.141 210.784C131.469 210.672 131.817 210.616 132.185 210.616C132.561 210.616 132.869 210.684 133.109 210.82C133.357 210.956 133.549 211.144 133.685 211.384C133.829 211.616 133.925 211.888 133.973 212.2C134.029 212.504 134.057 212.828 134.057 213.172V217ZM135.589 217V210.724H136.909V217H135.589ZM135.589 209.692V208.24H136.909V209.692H135.589ZM144.123 217H142.803V213.484C142.803 212.9 142.707 212.472 142.515 212.2C142.331 211.928 142.055 211.792 141.687 211.792C141.431 211.792 141.175 211.856 140.919 211.984C140.671 212.112 140.447 212.288 140.247 212.512C140.047 212.728 139.903 212.98 139.815 213.268V217H138.495V210.724H139.695V211.984C139.855 211.704 140.063 211.464 140.319 211.264C140.583 211.056 140.879 210.896 141.207 210.784C141.535 210.672 141.883 210.616 142.251 210.616C142.627 210.616 142.935 210.684 143.175 210.82C143.423 210.956 143.615 211.144 143.751 211.384C143.895 211.616 143.991 211.888 144.039 212.2C144.095 212.504 144.123 212.828 144.123 213.172V217ZM148.139 217.06C147.715 217.06 147.327 216.976 146.975 216.808C146.623 216.632 146.319 216.396 146.063 216.1C145.815 215.804 145.619 215.464 145.475 215.08C145.339 214.696 145.271 214.292 145.271 213.868C145.271 213.42 145.343 213 145.487 212.608C145.631 212.216 145.831 211.872 146.087 211.576C146.351 211.272 146.659 211.036 147.011 210.868C147.363 210.7 147.755 210.616 148.187 210.616C148.691 210.616 149.131 210.736 149.507 210.976C149.891 211.216 150.207 211.528 150.455 211.912V210.724H151.619V216.82C151.619 217.428 151.471 217.944 151.175 218.368C150.887 218.792 150.491 219.116 149.987 219.34C149.483 219.564 148.915 219.676 148.283 219.676C147.587 219.676 147.011 219.556 146.555 219.316C146.099 219.076 145.711 218.748 145.391 218.332L146.135 217.636C146.375 217.972 146.683 218.228 147.059 218.404C147.443 218.58 147.851 218.668 148.283 218.668C148.643 218.668 148.975 218.6 149.279 218.464C149.591 218.336 149.839 218.132 150.023 217.852C150.207 217.58 150.299 217.236 150.299 216.82V215.86C150.075 216.236 149.767 216.532 149.375 216.748C148.983 216.956 148.571 217.06 148.139 217.06ZM148.571 215.992C148.771 215.992 148.963 215.96 149.147 215.896C149.331 215.824 149.499 215.732 149.651 215.62C149.811 215.5 149.947 215.368 150.059 215.224C150.171 215.072 150.251 214.912 150.299 214.744V213.1C150.195 212.828 150.047 212.592 149.855 212.392C149.663 212.184 149.447 212.024 149.207 211.912C148.967 211.8 148.723 211.744 148.475 211.744C148.187 211.744 147.927 211.808 147.695 211.936C147.471 212.056 147.279 212.22 147.119 212.428C146.959 212.628 146.835 212.856 146.747 213.112C146.659 213.368 146.615 213.632 146.615 213.904C146.615 214.192 146.663 214.46 146.759 214.708C146.863 214.956 147.003 215.18 147.179 215.38C147.355 215.572 147.563 215.724 147.803 215.836C148.043 215.94 148.299 215.992 148.571 215.992Z" fill="#828282"/>
<path d="M459.96 217V208.48H462.984C463.904 208.48 464.672 208.672 465.288 209.056C465.904 209.432 466.364 209.944 466.668 210.592C466.98 211.232 467.136 211.944 467.136 212.728C467.136 213.592 466.964 214.344 466.62 214.984C466.284 215.624 465.804 216.12 465.18 216.472C464.556 216.824 463.824 217 462.984 217H459.96ZM465.768 212.728C465.768 212.128 465.656 211.6 465.432 211.144C465.216 210.68 464.9 210.32 464.484 210.064C464.076 209.8 463.576 209.668 462.984 209.668H461.304V215.812H462.984C463.584 215.812 464.088 215.676 464.496 215.404C464.912 215.132 465.228 214.764 465.444 214.3C465.66 213.836 465.768 213.312 465.768 212.728ZM467.856 215.164C467.856 214.764 467.968 214.416 468.192 214.12C468.424 213.816 468.74 213.584 469.14 213.424C469.54 213.256 470.004 213.172 470.532 213.172C470.812 213.172 471.096 213.192 471.384 213.232C471.68 213.272 471.94 213.336 472.164 213.424V213.028C472.164 212.588 472.032 212.244 471.768 211.996C471.504 211.748 471.124 211.624 470.628 211.624C470.276 211.624 469.944 211.688 469.632 211.816C469.32 211.936 468.988 212.108 468.636 212.332L468.192 211.444C468.608 211.164 469.024 210.956 469.44 210.82C469.864 210.684 470.308 210.616 470.772 210.616C471.612 210.616 472.272 210.84 472.752 211.288C473.24 211.728 473.484 212.356 473.484 213.172V215.512C473.484 215.664 473.508 215.772 473.556 215.836C473.612 215.9 473.704 215.936 473.832 215.944V217C473.712 217.024 473.604 217.04 473.508 217.048C473.412 217.056 473.332 217.06 473.268 217.06C472.988 217.06 472.776 216.992 472.632 216.856C472.488 216.72 472.404 216.56 472.38 216.376L472.344 216.016C472.072 216.368 471.724 216.64 471.3 216.832C470.876 217.024 470.448 217.12 470.016 217.12C469.6 217.12 469.228 217.036 468.9 216.868C468.572 216.692 468.316 216.456 468.132 216.16C467.948 215.864 467.856 215.532 467.856 215.164ZM471.852 215.548C471.948 215.444 472.024 215.34 472.08 215.236C472.136 215.132 472.164 215.04 472.164 214.96V214.24C471.94 214.152 471.704 214.088 471.456 214.048C471.208 214 470.964 213.976 470.724 213.976C470.244 213.976 469.852 214.072 469.548 214.264C469.252 214.456 469.104 214.72 469.104 215.056C469.104 215.24 469.152 215.416 469.248 215.584C469.352 215.752 469.496 215.888 469.68 215.992C469.872 216.096 470.108 216.148 470.388 216.148C470.676 216.148 470.952 216.092 471.216 215.98C471.48 215.868 471.692 215.724 471.852 215.548ZM475.078 218.476C475.198 218.492 475.314 218.508 475.426 218.524C475.546 218.548 475.642 218.56 475.714 218.56C475.85 218.56 475.966 218.516 476.062 218.428C476.166 218.348 476.27 218.196 476.374 217.972C476.478 217.748 476.606 217.424 476.758 217L474.178 210.724H475.558L477.478 215.656L479.182 210.724H480.454L477.61 218.452C477.522 218.684 477.394 218.896 477.226 219.088C477.058 219.288 476.85 219.444 476.602 219.556C476.354 219.668 476.062 219.724 475.726 219.724C475.63 219.724 475.53 219.716 475.426 219.7C475.322 219.684 475.206 219.66 475.078 219.628V218.476ZM483.493 217.12C482.965 217.12 482.465 217.036 481.993 216.868C481.521 216.692 481.117 216.432 480.781 216.088L481.273 215.2C481.633 215.52 481.993 215.752 482.353 215.896C482.721 216.04 483.085 216.112 483.445 216.112C483.813 216.112 484.113 216.044 484.345 215.908C484.577 215.764 484.693 215.556 484.693 215.284C484.693 215.084 484.633 214.936 484.513 214.84C484.393 214.744 484.217 214.66 483.985 214.588C483.761 214.516 483.489 214.436 483.169 214.348C482.721 214.212 482.345 214.072 482.041 213.928C481.737 213.776 481.509 213.592 481.357 213.376C481.205 213.16 481.129 212.884 481.129 212.548C481.129 212.14 481.233 211.792 481.441 211.504C481.649 211.216 481.937 210.996 482.305 210.844C482.681 210.692 483.113 210.616 483.601 210.616C484.057 210.616 484.477 210.688 484.861 210.832C485.253 210.968 485.597 211.184 485.893 211.48L485.329 212.356C485.049 212.1 484.761 211.912 484.465 211.792C484.177 211.672 483.865 211.612 483.529 211.612C483.337 211.612 483.153 211.636 482.977 211.684C482.801 211.724 482.653 211.804 482.533 211.924C482.421 212.036 482.365 212.196 482.365 212.404C482.365 212.572 482.413 212.708 482.509 212.812C482.605 212.916 482.749 213.004 482.941 213.076C483.133 213.148 483.369 213.228 483.649 213.316C484.137 213.46 484.553 213.604 484.897 213.748C485.241 213.884 485.505 214.064 485.689 214.288C485.881 214.504 485.977 214.804 485.977 215.188C485.977 215.796 485.749 216.272 485.293 216.616C484.845 216.952 484.245 217.12 483.493 217.12ZM489.664 215.164C489.664 214.764 489.776 214.416 490 214.12C490.232 213.816 490.548 213.584 490.948 213.424C491.348 213.256 491.812 213.172 492.34 213.172C492.62 213.172 492.904 213.192 493.192 213.232C493.488 213.272 493.748 213.336 493.972 213.424V213.028C493.972 212.588 493.84 212.244 493.576 211.996C493.312 211.748 492.932 211.624 492.436 211.624C492.084 211.624 491.752 211.688 491.44 211.816C491.128 211.936 490.796 212.108 490.444 212.332L490 211.444C490.416 211.164 490.832 210.956 491.248 210.82C491.672 210.684 492.116 210.616 492.58 210.616C493.42 210.616 494.08 210.84 494.56 211.288C495.048 211.728 495.292 212.356 495.292 213.172V215.512C495.292 215.664 495.316 215.772 495.364 215.836C495.42 215.9 495.512 215.936 495.64 215.944V217C495.52 217.024 495.412 217.04 495.316 217.048C495.22 217.056 495.14 217.06 495.076 217.06C494.796 217.06 494.584 216.992 494.44 216.856C494.296 216.72 494.212 216.56 494.188 216.376L494.152 216.016C493.88 216.368 493.532 216.64 493.108 216.832C492.684 217.024 492.256 217.12 491.824 217.12C491.408 217.12 491.036 217.036 490.708 216.868C490.38 216.692 490.124 216.456 489.94 216.16C489.756 215.864 489.664 215.532 489.664 215.164ZM493.66 215.548C493.756 215.444 493.832 215.34 493.888 215.236C493.944 215.132 493.972 215.04 493.972 214.96V214.24C493.748 214.152 493.512 214.088 493.264 214.048C493.016 214 492.772 213.976 492.532 213.976C492.052 213.976 491.66 214.072 491.356 214.264C491.06 214.456 490.912 214.72 490.912 215.056C490.912 215.24 490.96 215.416 491.056 215.584C491.16 215.752 491.304 215.888 491.488 215.992C491.68 216.096 491.916 216.148 492.196 216.148C492.484 216.148 492.76 216.092 493.024 215.98C493.288 215.868 493.5 215.724 493.66 215.548ZM500.339 216.676C500.227 216.732 500.087 216.792 499.919 216.856C499.751 216.92 499.559 216.976 499.343 217.024C499.135 217.072 498.919 217.096 498.695 217.096C498.423 217.096 498.171 217.048 497.939 216.952C497.707 216.856 497.519 216.704 497.375 216.496C497.239 216.28 497.171 216.004 497.171 215.668V211.744H496.343V210.724H497.171V208.66H498.491V210.724H499.859V211.744H498.491V215.248C498.507 215.464 498.575 215.624 498.695 215.728C498.823 215.832 498.979 215.884 499.163 215.884C499.347 215.884 499.523 215.852 499.691 215.788C499.859 215.724 499.983 215.672 500.063 215.632L500.339 216.676ZM504.733 216.676C504.621 216.732 504.481 216.792 504.313 216.856C504.145 216.92 503.953 216.976 503.737 217.024C503.529 217.072 503.313 217.096 503.089 217.096C502.817 217.096 502.565 217.048 502.333 216.952C502.101 216.856 501.913 216.704 501.769 216.496C501.633 216.28 501.565 216.004 501.565 215.668V211.744H500.737V210.724H501.565V208.66H502.885V210.724H504.253V211.744H502.885V215.248C502.901 215.464 502.969 215.624 503.089 215.728C503.217 215.832 503.373 215.884 503.557 215.884C503.741 215.884 503.917 215.852 504.085 215.788C504.253 215.724 504.377 215.672 504.457 215.632L504.733 216.676ZM508.409 217.12C507.921 217.12 507.477 217.036 507.077 216.868C506.685 216.692 506.345 216.456 506.057 216.16C505.769 215.856 505.545 215.512 505.385 215.128C505.233 214.736 505.157 214.32 505.157 213.88C505.157 213.288 505.293 212.748 505.565 212.26C505.837 211.764 506.217 211.368 506.705 211.072C507.193 210.768 507.765 210.616 508.421 210.616C509.077 210.616 509.641 210.768 510.113 211.072C510.593 211.368 510.965 211.76 511.229 212.248C511.493 212.736 511.625 213.26 511.625 213.82C511.625 213.916 511.621 214.008 511.613 214.096C511.605 214.176 511.597 214.244 511.589 214.3H506.561C506.585 214.668 506.685 214.992 506.861 215.272C507.045 215.544 507.277 215.76 507.557 215.92C507.837 216.072 508.137 216.148 508.457 216.148C508.809 216.148 509.141 216.06 509.453 215.884C509.773 215.708 509.989 215.476 510.101 215.188L511.229 215.512C511.093 215.816 510.885 216.092 510.605 216.34C510.333 216.58 510.009 216.772 509.633 216.916C509.257 217.052 508.849 217.12 508.409 217.12ZM506.525 213.424H510.317C510.293 213.064 510.189 212.748 510.005 212.476C509.829 212.196 509.601 211.98 509.321 211.828C509.049 211.668 508.745 211.588 508.409 211.588C508.081 211.588 507.777 211.668 507.497 211.828C507.225 211.98 507.001 212.196 506.825 212.476C506.649 212.748 506.549 213.064 506.525 213.424ZM518.33 217H517.01V213.484C517.01 212.9 516.914 212.472 516.722 212.2C516.538 211.928 516.262 211.792 515.894 211.792C515.638 211.792 515.382 211.856 515.126 211.984C514.878 212.112 514.654 212.288 514.454 212.512C514.254 212.728 514.11 212.98 514.022 213.268V217H512.702V210.724H513.902V211.984C514.062 211.704 514.27 211.464 514.526 211.264C514.79 211.056 515.086 210.896 515.414 210.784C515.742 210.672 516.09 210.616 516.458 210.616C516.834 210.616 517.142 210.684 517.382 210.82C517.63 210.956 517.822 211.144 517.958 211.384C518.102 211.616 518.198 211.888 518.246 212.2C518.302 212.504 518.33 212.828 518.33 213.172V217ZM519.466 213.868C519.466 213.268 519.586 212.724 519.826 212.236C520.074 211.74 520.41 211.348 520.834 211.06C521.258 210.764 521.746 210.616 522.298 210.616C522.778 210.616 523.21 210.74 523.594 210.988C523.986 211.236 524.29 211.544 524.506 211.912V208.24H525.826V215.512C525.826 215.664 525.854 215.772 525.91 215.836C525.966 215.9 526.058 215.936 526.186 215.944V217C525.938 217.04 525.746 217.06 525.61 217.06C525.362 217.06 525.15 216.988 524.974 216.844C524.806 216.7 524.718 216.528 524.71 216.328L524.698 215.86C524.458 216.26 524.134 216.572 523.726 216.796C523.318 217.012 522.894 217.12 522.454 217.12C522.022 217.12 521.622 217.036 521.254 216.868C520.894 216.7 520.578 216.464 520.306 216.16C520.042 215.856 519.834 215.508 519.682 215.116C519.538 214.724 519.466 214.308 519.466 213.868ZM524.506 214.744V213.1C524.418 212.844 524.274 212.616 524.074 212.416C523.882 212.208 523.662 212.044 523.414 211.924C523.174 211.804 522.934 211.744 522.694 211.744C522.414 211.744 522.158 211.804 521.926 211.924C521.702 212.044 521.506 212.204 521.338 212.404C521.178 212.604 521.054 212.832 520.966 213.088C520.878 213.344 520.834 213.612 520.834 213.892C520.834 214.18 520.882 214.452 520.978 214.708C521.074 214.956 521.21 215.18 521.386 215.38C521.57 215.572 521.778 215.724 522.01 215.836C522.25 215.94 522.51 215.992 522.79 215.992C522.966 215.992 523.142 215.96 523.318 215.896C523.502 215.832 523.674 215.744 523.834 215.632C524.002 215.52 524.142 215.388 524.254 215.236C524.374 215.084 524.458 214.92 524.506 214.744ZM530.347 217.12C529.859 217.12 529.415 217.036 529.015 216.868C528.623 216.692 528.283 216.456 527.995 216.16C527.707 215.856 527.483 215.512 527.323 215.128C527.171 214.736 527.095 214.32 527.095 213.88C527.095 213.288 527.231 212.748 527.503 212.26C527.775 211.764 528.155 211.368 528.643 211.072C529.131 210.768 529.703 210.616 530.359 210.616C531.015 210.616 531.579 210.768 532.051 211.072C532.531 211.368 532.903 211.76 533.167 212.248C533.431 212.736 533.563 213.26 533.563 213.82C533.563 213.916 533.559 214.008 533.551 214.096C533.543 214.176 533.535 214.244 533.527 214.3H528.499C528.523 214.668 528.623 214.992 528.799 215.272C528.983 215.544 529.215 215.76 529.495 215.92C529.775 216.072 530.075 216.148 530.395 216.148C530.747 216.148 531.079 216.06 531.391 215.884C531.711 215.708 531.927 215.476 532.039 215.188L533.167 215.512C533.031 215.816 532.823 216.092 532.543 216.34C532.271 216.58 531.947 216.772 531.571 216.916C531.195 217.052 530.787 217.12 530.347 217.12ZM528.463 213.424H532.255C532.231 213.064 532.127 212.748 531.943 212.476C531.767 212.196 531.539 211.98 531.259 211.828C530.987 211.668 530.683 211.588 530.347 211.588C530.019 211.588 529.715 211.668 529.435 211.828C529.163 211.98 528.939 212.196 528.763 212.476C528.587 212.748 528.487 213.064 528.463 213.424ZM534.244 213.868C534.244 213.268 534.364 212.724 534.604 212.236C534.852 211.74 535.188 211.348 535.612 211.06C536.036 210.764 536.524 210.616 537.076 210.616C537.556 210.616 537.988 210.74 538.372 210.988C538.764 211.236 539.068 211.544 539.284 211.912V208.24H540.604V215.512C540.604 215.664 540.632 215.772 540.688 215.836C540.744 215.9 540.836 215.936 540.964 215.944V217C540.716 217.04 540.524 217.06 540.388 217.06C540.14 217.06 539.928 216.988 539.752 216.844C539.584 216.7 539.496 216.528 539.488 216.328L539.476 215.86C539.236 216.26 538.912 216.572 538.504 216.796C538.096 217.012 537.672 217.12 537.232 217.12C536.8 217.12 536.4 217.036 536.032 216.868C535.672 216.7 535.356 216.464 535.084 216.16C534.82 215.856 534.612 215.508 534.46 215.116C534.316 214.724 534.244 214.308 534.244 213.868ZM539.284 214.744V213.1C539.196 212.844 539.052 212.616 538.852 212.416C538.66 212.208 538.44 212.044 538.192 211.924C537.952 211.804 537.712 211.744 537.472 211.744C537.192 211.744 536.936 211.804 536.704 211.924C536.48 212.044 536.284 212.204 536.116 212.404C535.956 212.604 535.832 212.832 535.744 213.088C535.656 213.344 535.612 213.612 535.612 213.892C535.612 214.18 535.66 214.452 535.756 214.708C535.852 214.956 535.988 215.18 536.164 215.38C536.348 215.572 536.556 215.724 536.788 215.836C537.028 215.94 537.288 215.992 537.568 215.992C537.744 215.992 537.92 215.96 538.096 215.896C538.28 215.832 538.452 215.744 538.612 215.632C538.78 215.52 538.92 215.388 539.032 215.236C539.152 215.084 539.236 214.92 539.284 214.744Z" fill="#828282"/>
<path d="M492.152 175.8V171.672H499.864V195H495.256V175.8H492.152ZM516.386 177.496C516.172 176.6 515.799 175.928 515.266 175.48C514.754 175.032 514.007 174.808 513.026 174.808C511.554 174.808 510.466 175.405 509.762 176.6C509.079 177.773 508.727 179.693 508.706 182.36C509.218 181.507 509.964 180.845 510.946 180.376C511.927 179.885 512.994 179.64 514.146 179.64C515.532 179.64 516.759 179.939 517.826 180.536C518.892 181.133 519.724 182.008 520.322 183.16C520.919 184.291 521.218 185.656 521.218 187.256C521.218 188.771 520.908 190.125 520.29 191.32C519.692 192.493 518.807 193.411 517.634 194.072C516.46 194.733 515.063 195.064 513.442 195.064C511.223 195.064 509.474 194.573 508.194 193.592C506.935 192.611 506.05 191.245 505.538 189.496C505.047 187.725 504.802 185.549 504.802 182.968C504.802 179.064 505.474 176.12 506.818 174.136C508.162 172.131 510.284 171.128 513.186 171.128C515.426 171.128 517.164 171.736 518.402 172.952C519.639 174.168 520.354 175.683 520.546 177.496H516.386ZM513.122 183.32C511.991 183.32 511.042 183.651 510.274 184.312C509.506 184.973 509.122 185.933 509.122 187.192C509.122 188.451 509.474 189.443 510.178 190.168C510.903 190.893 511.916 191.256 513.218 191.256C514.37 191.256 515.276 190.904 515.938 190.2C516.62 189.496 516.962 188.547 516.962 187.352C516.962 186.115 516.631 185.133 515.97 184.408C515.33 183.683 514.38 183.32 513.122 183.32Z" fill="#333333"/>
<rect x="459" y="174" width="22" height="22" rx="8" fill="#EF6C00"/>
<path d="M51.64 37.8L55.56 44.86L59.52 37.8H61.98L56.68 46.92V52H54.44V46.88L49.18 37.8H51.64ZM66.5981 52.2C65.7715 52.2 65.0315 52.06 64.3781 51.78C63.7248 51.4867 63.1581 51.0867 62.6781 50.58C62.2115 50.0733 61.8515 49.5 61.5981 48.86C61.3448 48.2067 61.2181 47.5133 61.2181 46.78C61.2181 46.0467 61.3448 45.3533 61.5981 44.7C61.8515 44.0467 62.2115 43.4733 62.6781 42.98C63.1581 42.4733 63.7248 42.08 64.3781 41.8C65.0448 41.5067 65.7848 41.36 66.5981 41.36C67.4115 41.36 68.1448 41.5067 68.7981 41.8C69.4648 42.08 70.0315 42.4733 70.4981 42.98C70.9781 43.4733 71.3448 44.0467 71.5981 44.7C71.8515 45.3533 71.9781 46.0467 71.9781 46.78C71.9781 47.5133 71.8515 48.2067 71.5981 48.86C71.3448 49.5 70.9781 50.0733 70.4981 50.58C70.0315 51.0867 69.4648 51.4867 68.7981 51.78C68.1448 52.06 67.4115 52.2 66.5981 52.2ZM63.4781 46.8C63.4781 47.4667 63.6181 48.0667 63.8981 48.6C64.1781 49.1333 64.5515 49.5533 65.0181 49.86C65.4848 50.1667 66.0115 50.32 66.5981 50.32C67.1715 50.32 67.6915 50.1667 68.1581 49.86C68.6381 49.54 69.0181 49.1133 69.2981 48.58C69.5781 48.0333 69.7181 47.4333 69.7181 46.78C69.7181 46.1133 69.5781 45.5133 69.2981 44.98C69.0181 44.4467 68.6381 44.0267 68.1581 43.72C67.6915 43.4 67.1715 43.24 66.5981 43.24C66.0115 43.24 65.4848 43.4 65.0181 43.72C64.5515 44.04 64.1781 44.4667 63.8981 45C63.6181 45.52 63.4781 46.12 63.4781 46.8ZM74.0794 47.94V41.54H76.2794V47.5C76.2794 48.4333 76.446 49.14 76.7794 49.62C77.126 50.0867 77.626 50.32 78.2794 50.32C78.6927 50.32 79.0927 50.2333 79.4794 50.06C79.8794 49.8867 80.2394 49.6333 80.5594 49.3C80.8927 48.9533 81.1594 48.54 81.3594 48.06V41.54H83.5594V49.52C83.5594 49.7733 83.606 49.9533 83.6994 50.06C83.7927 50.1667 83.946 50.2267 84.1594 50.24V52C83.9327 52.04 83.746 52.0667 83.5994 52.08C83.4527 52.0933 83.3127 52.1 83.1794 52.1C82.7794 52.1 82.446 51.9933 82.1794 51.78C81.9127 51.5533 81.7594 51.2667 81.7194 50.92L81.6794 49.88C81.2127 50.64 80.606 51.22 79.8594 51.62C79.1127 52.0067 78.2927 52.2 77.3994 52.2C76.306 52.2 75.4794 51.84 74.9194 51.12C74.3594 50.4 74.0794 49.34 74.0794 47.94ZM92.4969 43.44C91.6435 43.4533 90.8835 43.6467 90.2169 44.02C89.5635 44.3933 89.0969 44.92 88.8169 45.6V52H86.6169V41.54H88.6569V43.88C89.0169 43.16 89.4902 42.5867 90.0769 42.16C90.6635 41.72 91.2835 41.48 91.9369 41.44C92.0702 41.44 92.1769 41.44 92.2569 41.44C92.3502 41.44 92.4302 41.4467 92.4969 41.46V43.44ZM99.3695 52V37.8H105.33C105.97 37.8 106.556 37.9333 107.09 38.2C107.623 38.4667 108.09 38.82 108.49 39.26C108.89 39.7 109.196 40.1933 109.41 40.74C109.623 41.2867 109.73 41.8467 109.73 42.42C109.73 43.2067 109.55 43.96 109.19 44.68C108.843 45.3867 108.343 45.96 107.69 46.4C107.05 46.84 106.303 47.06 105.45 47.06H101.61V52H99.3695ZM101.61 45.08H105.31C105.736 45.08 106.11 44.9667 106.43 44.74C106.75 44.5 106.996 44.18 107.17 43.78C107.356 43.38 107.45 42.9267 107.45 42.42C107.45 41.9 107.343 41.44 107.13 41.04C106.916 40.64 106.636 40.3333 106.29 40.12C105.956 39.8933 105.59 39.78 105.19 39.78H101.61V45.08ZM117.68 43.44C116.827 43.4533 116.067 43.6467 115.4 44.02C114.747 44.3933 114.28 44.92 114 45.6V52H111.8V41.54H113.84V43.88C114.2 43.16 114.674 42.5867 115.26 42.16C115.847 41.72 116.467 41.48 117.12 41.44C117.254 41.44 117.36 41.44 117.44 41.44C117.534 41.44 117.614 41.4467 117.68 41.46V43.44ZM124.036 52.2C123.209 52.2 122.469 52.06 121.816 51.78C121.162 51.4867 120.596 51.0867 120.116 50.58C119.649 50.0733 119.289 49.5 119.036 48.86C118.782 48.2067 118.656 47.5133 118.656 46.78C118.656 46.0467 118.782 45.3533 119.036 44.7C119.289 44.0467 119.649 43.4733 120.116 42.98C120.596 42.4733 121.162 42.08 121.816 41.8C122.482 41.5067 123.222 41.36 124.036 41.36C124.849 41.36 125.582 41.5067 126.236 41.8C126.902 42.08 127.469 42.4733 127.936 42.98C128.416 43.4733 128.782 44.0467 129.036 44.7C129.289 45.3533 129.416 46.0467 129.416 46.78C129.416 47.5133 129.289 48.2067 129.036 48.86C128.782 49.5 128.416 50.0733 127.936 50.58C127.469 51.0867 126.902 51.4867 126.236 51.78C125.582 52.06 124.849 52.2 124.036 52.2ZM120.916 46.8C120.916 47.4667 121.056 48.0667 121.336 48.6C121.616 49.1333 121.989 49.5533 122.456 49.86C122.922 50.1667 123.449 50.32 124.036 50.32C124.609 50.32 125.129 50.1667 125.596 49.86C126.076 49.54 126.456 49.1133 126.736 48.58C127.016 48.0333 127.156 47.4333 127.156 46.78C127.156 46.1133 127.016 45.5133 126.736 44.98C126.456 44.4467 126.076 44.0267 125.596 43.72C125.129 43.4 124.609 43.24 124.036 43.24C123.449 43.24 122.922 43.4 122.456 43.72C121.989 44.04 121.616 44.4667 121.336 45C121.056 45.52 120.916 46.12 120.916 46.8ZM135.757 52.1C135.05 52.1 134.404 51.96 133.817 51.68C133.23 51.3867 132.724 50.9933 132.297 50.5C131.884 50.0067 131.557 49.44 131.317 48.8C131.09 48.16 130.977 47.4867 130.977 46.78C130.977 46.0333 131.097 45.3333 131.337 44.68C131.577 44.0267 131.91 43.4533 132.337 42.96C132.777 42.4533 133.29 42.06 133.877 41.78C134.464 41.5 135.117 41.36 135.837 41.36C136.677 41.36 137.41 41.56 138.037 41.96C138.677 42.36 139.204 42.88 139.617 43.52V41.54H141.557V51.7C141.557 52.7133 141.31 53.5733 140.817 54.28C140.337 54.9867 139.677 55.5267 138.837 55.9C137.997 56.2733 137.05 56.46 135.997 56.46C134.837 56.46 133.877 56.26 133.117 55.86C132.357 55.46 131.71 54.9133 131.177 54.22L132.417 53.06C132.817 53.62 133.33 54.0467 133.957 54.34C134.597 54.6333 135.277 54.78 135.997 54.78C136.597 54.78 137.15 54.6667 137.657 54.44C138.177 54.2267 138.59 53.8867 138.897 53.42C139.204 52.9667 139.357 52.3933 139.357 51.7V50.1C138.984 50.7267 138.47 51.22 137.817 51.58C137.164 51.9267 136.477 52.1 135.757 52.1ZM136.477 50.32C136.81 50.32 137.13 50.2667 137.437 50.16C137.744 50.04 138.024 49.8867 138.277 49.7C138.544 49.5 138.77 49.28 138.957 49.04C139.144 48.7867 139.277 48.52 139.357 48.24V45.5C139.184 45.0467 138.937 44.6533 138.617 44.32C138.297 43.9733 137.937 43.7067 137.537 43.52C137.137 43.3333 136.73 43.24 136.317 43.24C135.837 43.24 135.404 43.3467 135.017 43.56C134.644 43.76 134.324 44.0333 134.057 44.38C133.79 44.7133 133.584 45.0933 133.437 45.52C133.29 45.9467 133.217 46.3867 133.217 46.84C133.217 47.32 133.297 47.7667 133.457 48.18C133.63 48.5933 133.864 48.9667 134.157 49.3C134.45 49.62 134.797 49.8733 135.197 50.06C135.597 50.2333 136.024 50.32 136.477 50.32ZM150.325 43.44C149.472 43.4533 148.712 43.6467 148.045 44.02C147.392 44.3933 146.925 44.92 146.645 45.6V52H144.445V41.54H146.485V43.88C146.845 43.16 147.318 42.5867 147.905 42.16C148.492 41.72 149.112 41.48 149.765 41.44C149.898 41.44 150.005 41.44 150.085 41.44C150.178 41.44 150.258 41.4467 150.325 41.46V43.44ZM156.72 52.2C155.907 52.2 155.167 52.06 154.5 51.78C153.847 51.4867 153.28 51.0933 152.8 50.6C152.32 50.0933 151.947 49.52 151.68 48.88C151.427 48.2267 151.3 47.5333 151.3 46.8C151.3 45.8133 151.527 44.9133 151.98 44.1C152.433 43.2733 153.067 42.6133 153.88 42.12C154.693 41.6133 155.647 41.36 156.74 41.36C157.833 41.36 158.773 41.6133 159.56 42.12C160.36 42.6133 160.98 43.2667 161.42 44.08C161.86 44.8933 162.08 45.7667 162.08 46.7C162.08 46.86 162.073 47.0133 162.06 47.16C162.047 47.2933 162.033 47.4067 162.02 47.5H153.64C153.68 48.1133 153.847 48.6533 154.14 49.12C154.447 49.5733 154.833 49.9333 155.3 50.2C155.767 50.4533 156.267 50.58 156.8 50.58C157.387 50.58 157.94 50.4333 158.46 50.14C158.993 49.8467 159.353 49.46 159.54 48.98L161.42 49.52C161.193 50.0267 160.847 50.4867 160.38 50.9C159.927 51.3 159.387 51.62 158.76 51.86C158.133 52.0867 157.453 52.2 156.72 52.2ZM153.58 46.04H159.9C159.86 45.44 159.687 44.9133 159.38 44.46C159.087 43.9933 158.707 43.6333 158.24 43.38C157.787 43.1133 157.28 42.98 156.72 42.98C156.173 42.98 155.667 43.1133 155.2 43.38C154.747 43.6333 154.373 43.9933 154.08 44.46C153.787 44.9133 153.62 45.44 153.58 46.04ZM167.845 52.2C166.965 52.2 166.131 52.06 165.345 51.78C164.558 51.4867 163.885 51.0533 163.325 50.48L164.145 49C164.745 49.5333 165.345 49.92 165.945 50.16C166.558 50.4 167.165 50.52 167.765 50.52C168.378 50.52 168.878 50.4067 169.265 50.18C169.651 49.94 169.845 49.5933 169.845 49.14C169.845 48.8067 169.745 48.56 169.545 48.4C169.345 48.24 169.051 48.1 168.665 47.98C168.291 47.86 167.838 47.7267 167.305 47.58C166.558 47.3533 165.931 47.12 165.425 46.88C164.918 46.6267 164.538 46.32 164.285 45.96C164.031 45.6 163.905 45.14 163.905 44.58C163.905 43.9 164.078 43.32 164.425 42.84C164.771 42.36 165.251 41.9933 165.865 41.74C166.491 41.4867 167.211 41.36 168.025 41.36C168.785 41.36 169.485 41.48 170.125 41.72C170.778 41.9467 171.351 42.3067 171.845 42.8L170.905 44.26C170.438 43.8333 169.958 43.52 169.465 43.32C168.985 43.12 168.465 43.02 167.905 43.02C167.585 43.02 167.278 43.06 166.985 43.14C166.691 43.2067 166.445 43.34 166.245 43.54C166.058 43.7267 165.965 43.9933 165.965 44.34C165.965 44.62 166.045 44.8467 166.205 45.02C166.365 45.1933 166.605 45.34 166.925 45.46C167.245 45.58 167.638 45.7133 168.105 45.86C168.918 46.1 169.611 46.34 170.185 46.58C170.758 46.8067 171.198 47.1067 171.505 47.48C171.825 47.84 171.985 48.34 171.985 48.98C171.985 49.9933 171.605 50.7867 170.845 51.36C170.098 51.92 169.098 52.2 167.845 52.2ZM177.919 52.2C177.039 52.2 176.206 52.06 175.419 51.78C174.632 51.4867 173.959 51.0533 173.399 50.48L174.219 49C174.819 49.5333 175.419 49.92 176.019 50.16C176.632 50.4 177.239 50.52 177.839 50.52C178.452 50.52 178.952 50.4067 179.339 50.18C179.726 49.94 179.919 49.5933 179.919 49.14C179.919 48.8067 179.819 48.56 179.619 48.4C179.419 48.24 179.126 48.1 178.739 47.98C178.366 47.86 177.912 47.7267 177.379 47.58C176.632 47.3533 176.006 47.12 175.499 46.88C174.992 46.6267 174.612 46.32 174.359 45.96C174.106 45.6 173.979 45.14 173.979 44.58C173.979 43.9 174.152 43.32 174.499 42.84C174.846 42.36 175.326 41.9933 175.939 41.74C176.566 41.4867 177.286 41.36 178.099 41.36C178.859 41.36 179.559 41.48 180.199 41.72C180.852 41.9467 181.426 42.3067 181.919 42.8L180.979 44.26C180.512 43.8333 180.032 43.52 179.539 43.32C179.059 43.12 178.539 43.02 177.979 43.02C177.659 43.02 177.352 43.06 177.059 43.14C176.766 43.2067 176.519 43.34 176.319 43.54C176.132 43.7267 176.039 43.9933 176.039 44.34C176.039 44.62 176.119 44.8467 176.279 45.02C176.439 45.1933 176.679 45.34 176.999 45.46C177.319 45.58 177.712 45.7133 178.179 45.86C178.992 46.1 179.686 46.34 180.259 46.58C180.832 46.8067 181.272 47.1067 181.579 47.48C181.899 47.84 182.059 48.34 182.059 48.98C182.059 49.9933 181.679 50.7867 180.919 51.36C180.172 51.92 179.172 52.2 177.919 52.2ZM189.885 46.94V37.66H192.085V46.94H189.885ZM189.885 52V49.26H192.085V52H189.885Z" fill="#F2632E"/>
</g>
<rect x="0.5" y="0.5" width="1038" height="304" rx="15.5" stroke="#F48F18"/>
<defs>
<clipPath id="clip0_1017_745">
<rect width="1039" height="305" rx="16" fill="white"/>
</clipPath>
</defs>
</svg>
