<svg width="27" height="27" viewBox="0 0 27 27" fill="none" xmlns="http://www.w3.org/2000/svg">
<path d="M6.30633 1.85522C3.85788 1.85522 1.85449 3.85861 1.85449 6.30706V20.0846C1.85449 22.533 3.85788 24.5364 6.30633 24.5364H20.0839C22.5323 24.5364 24.5357 22.533 24.5357 20.0846V6.30706C24.5357 3.85861 22.5323 1.85522 20.0839 1.85522H6.30633ZM6.30633 3.91785H20.0839C21.4257 3.91785 22.4735 4.96519 22.4735 6.30706V20.0846C22.4735 21.4265 21.4257 22.4742 20.0839 22.4742H6.30633C4.96446 22.4742 3.91711 21.4265 3.91711 20.0846V6.30706C3.91711 4.96519 4.96446 3.91785 6.30633 3.91785ZM19.9236 6.10209C19.6887 6.10025 19.4603 6.17868 19.276 6.32437C19.1699 6.40835 19.0812 6.51242 19.0153 6.63065C18.9493 6.74887 18.9073 6.87893 18.8916 7.0134C18.8759 7.14787 18.8868 7.28411 18.9237 7.41436C18.9607 7.5446 19.0229 7.66629 19.1069 7.77248C19.1909 7.87867 19.295 7.96728 19.4132 8.03325C19.5314 8.09922 19.6615 8.14126 19.7959 8.15697C19.9304 8.17267 20.0666 8.16174 20.1969 8.12479C20.3271 8.08784 20.4488 8.02559 20.555 7.94161C20.6612 7.85764 20.7498 7.75356 20.8158 7.63534C20.8818 7.51712 20.9238 7.38706 20.9395 7.25259C20.9552 7.11812 20.9443 6.98187 20.9073 6.85163C20.8704 6.72139 20.8081 6.5997 20.7241 6.49351C20.6285 6.37254 20.5069 6.27457 20.3683 6.20683C20.2298 6.13908 20.0778 6.10329 19.9236 6.10209ZM13.1433 6.95701C9.6528 6.95701 6.80124 9.80898 6.80124 13.2995C6.80124 16.7901 9.6528 19.6416 13.1433 19.6416C16.6339 19.6416 19.4854 16.7901 19.4854 13.2995C19.4854 9.80898 16.6339 6.95701 13.1433 6.95701ZM13.1433 9.01803C15.5196 9.01803 17.4232 10.9233 17.4232 13.2995C17.4232 15.6758 15.5196 17.5794 13.1433 17.5794C10.7671 17.5794 8.86346 15.6758 8.86346 13.2995C8.86346 10.9233 10.7671 9.01803 13.1433 9.01803Z" fill="#F47D31"/>
</svg>
