<svg width="27" height="27" viewBox="0 0 27 27" fill="none" xmlns="http://www.w3.org/2000/svg">
<g clip-path="url(#clip0_366_230)">
<path d="M26.9652 5.01181C25.9945 5.44314 24.9521 5.73427 23.856 5.86375C24.9735 5.19407 25.8321 4.13347 26.237 2.86999C25.1904 3.48936 24.0325 3.94131 22.7995 4.18296C21.8115 3.13143 20.4045 2.47412 18.8466 2.47412C15.857 2.47412 13.4348 4.89717 13.4348 7.8868C13.4348 8.31071 13.4818 8.72473 13.5741 9.1206C9.07525 8.89462 5.08687 6.73961 2.41641 3.46462C1.95126 4.2646 1.68405 5.19407 1.68405 6.18622C1.68405 8.06495 2.63991 9.721 4.09143 10.6925C3.20485 10.6637 2.37022 10.4212 1.64034 10.0154C1.63952 10.0377 1.63952 10.0616 1.63952 10.0831C1.63952 12.7065 3.50505 14.8945 5.9817 15.3918C5.5281 15.5147 5.04976 15.5815 4.55575 15.5815C4.20607 15.5815 3.86793 15.5477 3.53804 15.485C4.22586 17.6343 6.22582 19.1996 8.59361 19.2441C6.7421 20.6956 4.40812 21.5624 1.87209 21.5624C1.43498 21.5624 1.00365 21.5369 0.580566 21.4866C2.97557 23.0205 5.82088 23.917 8.87815 23.917C18.8342 23.917 24.2799 15.6689 24.2799 8.51525C24.2799 8.28102 24.2733 8.0468 24.2634 7.81423C25.3216 7.05136 26.2387 6.0988 26.9652 5.01181Z" fill="#F47D31"/>
</g>
<defs>
<clipPath id="clip0_366_230">
<rect width="26.3913" height="26.3913" fill="white" transform="translate(0.57959)"/>
</clipPath>
</defs>
</svg>
